<svg xmlns="http://www.w3.org/2000/svg" width="100" height="100" viewBox="0 0 64 11" fill="none">
<path d="M5.64417 1.42259C5.70582 1.23287 5.97423 1.23287 6.03587 1.42259L6.90341 4.09259C6.93097 4.17743 7.01004 4.23488 7.09926 4.23488H9.90666C10.1061 4.23488 10.1891 4.49015 10.0277 4.60741L7.75646 6.25756C7.68429 6.31 7.65409 6.40295 7.68166 6.4878L8.54919 9.15779C8.61084 9.34752 8.39369 9.50528 8.2323 9.38803L5.96106 7.73788C5.88889 7.68544 5.79115 7.68544 5.71898 7.73788L3.44774 9.38803C3.28635 9.50528 3.06921 9.34752 3.13085 9.15779L3.99839 6.4878C4.02595 6.40295 3.99575 6.31 3.92358 6.25756L1.65234 4.60741C1.49095 4.49015 1.5739 4.23488 1.77339 4.23488H4.58079C4.67 4.23488 4.74907 4.17743 4.77664 4.09259L5.64417 1.42259Z" fill="#F1CC4A"/>
</svg>