<svg width="14" height="14" viewBox="0 0 14 14" fill="none" xmlns="http://www.w3.org/2000/svg">
<rect width="14" height="14" fill="#E5E5E5"/>
<g id="Cover" clip-path="url(#clip0_32_18)">
<rect width="1440" height="1019" transform="translate(-500 -347)" fill="#DBDDFF"/>
</g>
<g id="Desktop - 1" clip-path="url(#clip1_32_18)">
<rect width="593.078" height="1516.47" transform="translate(-354 -409)" fill="white"/>
<g id="Group 1953">
<g id="Frame 7">
<rect x="-9.75748" y="-19.2324" width="109.967" height="109.967" rx="4.1186" fill="#545BE8"/>
<g id="Group 10">
<circle id="Ellipse 9" cx="6.71689" cy="7.12661" r="9.88463" fill="white"/>
</g>
<g id="50">
<g id="Group 1702">
<path id="Vector" d="M11.4614 5.89651L6.90353 7.61534C6.70584 7.69222 6.49167 7.69222 6.29398 7.61534L1.73606 5.89651C1.49444 5.80865 1.49444 5.47916 1.73057 5.3858L6.28849 3.66697C6.48618 3.59009 6.70035 3.59009 6.89804 3.66697L11.456 5.3858C11.6921 5.47367 11.6921 5.80865 11.4614 5.89651Z" stroke="#F0C932" stroke-width="0.658976" stroke-miterlimit="10" stroke-linecap="round" stroke-linejoin="round"/>
<path id="Vector_2" d="M1.55496 5.64386V8.46098" stroke="#F0C932" stroke-width="0.658976" stroke-miterlimit="10" stroke-linecap="round" stroke-linejoin="round"/>
<path id="Vector_3" d="M3.11444 6.52258V9.97671C3.11444 10.4764 4.67402 10.8883 6.59603 10.8883C8.51804 10.8883 10.0776 10.4819 10.0776 9.97671V6.52258" stroke="#F0C932" stroke-width="0.658976" stroke-miterlimit="10" stroke-linecap="round" stroke-linejoin="round"/>
</g>
</g>
</g>
</g>
</g>
<defs>
<clipPath id="clip0_32_18">
<rect width="1440" height="1019" fill="white" transform="translate(-500 -347)"/>
</clipPath>
<clipPath id="clip1_32_18">
<rect width="593.078" height="1516.47" fill="white" transform="translate(-354 -409)"/>
</clipPath>
</defs>
</svg>
