<svg width="111" height="111" viewBox="0 0 111 111" fill="none" xmlns="http://www.w3.org/2000/svg">
<rect x="0.683472" y="0.767578" width="109.967" height="109.967" rx="4.1186" fill="#545BE8"/>
<circle cx="17.1579" cy="27.1266" r="9.88463" fill="white"/>
<path d="M7.72078 49.3061V45.2623H8.84228V49.3061H7.72078ZM8.28416 44.7411C8.11743 44.7411 7.97439 44.6858 7.85504 44.5752C7.73745 44.4629 7.67866 44.3286 7.67866 44.1724C7.67866 44.018 7.73745 43.8855 7.85504 43.7749C7.97439 43.6626 8.11743 43.6064 8.28416 43.6064C8.45089 43.6064 8.59305 43.6626 8.71065 43.7749C8.82999 43.8855 8.88966 44.018 8.88966 44.1724C8.88966 44.3286 8.82999 44.4629 8.71065 44.5752C8.59305 44.6858 8.45089 44.7411 8.28416 44.7411ZM10.8622 46.9683V49.3061H9.74066V45.2623H10.8095V45.9758H10.8569C10.9464 45.7406 11.0965 45.5546 11.3071 45.4177C11.5177 45.279 11.773 45.2097 12.0732 45.2097C12.354 45.2097 12.5988 45.2711 12.8077 45.394C13.0165 45.5168 13.1789 45.6923 13.2947 45.9205C13.4105 46.1469 13.4685 46.4172 13.4685 46.7314V49.3061H12.347V46.9314C12.3487 46.684 12.2855 46.4909 12.1574 46.3523C12.0293 46.2118 11.8529 46.1416 11.6283 46.1416C11.4773 46.1416 11.3439 46.1741 11.2281 46.2391C11.114 46.304 11.0245 46.3988 10.9596 46.5234C10.8964 46.6462 10.8639 46.7945 10.8622 46.9683ZM16.5032 45.2623V46.1048H14.068V45.2623H16.5032ZM14.6209 44.2935H15.7424V48.0635C15.7424 48.167 15.7582 48.2477 15.7898 48.3057C15.8214 48.3618 15.8652 48.4013 15.9214 48.4241C15.9793 48.4469 16.046 48.4584 16.1215 48.4584C16.1741 48.4584 16.2268 48.454 16.2794 48.4452C16.3321 48.4347 16.3725 48.4268 16.4005 48.4215L16.5769 49.256C16.5208 49.2736 16.4418 49.2938 16.34 49.3166C16.2382 49.3412 16.1145 49.3561 15.9688 49.3613C15.6985 49.3719 15.4616 49.3359 15.258 49.2534C15.0562 49.1709 14.8991 49.0428 14.7867 48.869C14.6744 48.6953 14.6191 48.4759 14.6209 48.2109V44.2935ZM19.0332 49.385C18.6172 49.385 18.2592 49.3008 17.9591 49.1323C17.6607 48.9621 17.4308 48.7216 17.2693 48.411C17.1078 48.0986 17.0271 47.7291 17.0271 47.3026C17.0271 46.8867 17.1078 46.5216 17.2693 46.2075C17.4308 45.8933 17.6581 45.6485 17.9512 45.473C18.246 45.2974 18.5918 45.2097 18.9884 45.2097C19.2552 45.2097 19.5035 45.2527 19.7335 45.3387C19.9651 45.4229 20.167 45.5502 20.339 45.7204C20.5127 45.8907 20.6479 46.1048 20.7444 46.3628C20.8409 46.619 20.8892 46.9191 20.8892 47.2631V47.5712H17.4747V46.8761H19.8335C19.8335 46.7147 19.7984 46.5716 19.7282 46.447C19.658 46.3224 19.5606 46.225 19.436 46.1548C19.3131 46.0828 19.1701 46.0469 19.0068 46.0469C18.8366 46.0469 18.6857 46.0864 18.554 46.1653C18.4242 46.2426 18.3224 46.347 18.2487 46.4786C18.1749 46.6085 18.1372 46.7533 18.1354 46.913V47.5738C18.1354 47.7739 18.1723 47.9467 18.246 48.0924C18.3215 48.2381 18.4277 48.3504 18.5646 48.4294C18.7015 48.5084 18.8638 48.5479 19.0516 48.5479C19.1762 48.5479 19.2903 48.5303 19.3938 48.4952C19.4974 48.4601 19.586 48.4075 19.6597 48.3373C19.7335 48.2671 19.7896 48.1811 19.8282 48.0793L20.8655 48.1477C20.8128 48.3969 20.7049 48.6146 20.5417 48.8006C20.3802 48.9849 20.1713 49.1288 19.9151 49.2323C19.6606 49.3341 19.3666 49.385 19.0332 49.385ZM21.621 49.3061V45.2623H22.7083V45.9679H22.7504C22.8242 45.7169 22.9479 45.5274 23.1216 45.3992C23.2954 45.2694 23.4955 45.2044 23.7219 45.2044C23.778 45.2044 23.8386 45.2079 23.9035 45.215C23.9685 45.222 24.0255 45.2316 24.0747 45.2439V46.2391C24.022 46.2233 23.9492 46.2092 23.8561 46.1969C23.7631 46.1846 23.678 46.1785 23.6008 46.1785C23.4358 46.1785 23.2884 46.2145 23.1585 46.2864C23.0304 46.3566 22.9286 46.4549 22.8531 46.5813C22.7794 46.7077 22.7425 46.8533 22.7425 47.0183V49.3061H21.621ZM26.3091 49.385C25.8931 49.385 25.5351 49.3008 25.235 49.1323C24.9366 48.9621 24.7067 48.7216 24.5452 48.411C24.3838 48.0986 24.303 47.7291 24.303 47.3026C24.303 46.8867 24.3838 46.5216 24.5452 46.2075C24.7067 45.8933 24.934 45.6485 25.2271 45.473C25.5219 45.2974 25.8677 45.2097 26.2643 45.2097C26.5311 45.2097 26.7795 45.2527 27.0094 45.3387C27.241 45.4229 27.4429 45.5502 27.6149 45.7204C27.7886 45.8907 27.9238 46.1048 28.0203 46.3628C28.1168 46.619 28.1651 46.9191 28.1651 47.2631V47.5712H24.7506V46.8761H27.1094C27.1094 46.7147 27.0743 46.5716 27.0041 46.447C26.9339 46.3224 26.8365 46.225 26.7119 46.1548C26.589 46.0828 26.446 46.0469 26.2828 46.0469C26.1125 46.0469 25.9616 46.0864 25.83 46.1653C25.7001 46.2426 25.5983 46.347 25.5246 46.4786C25.4509 46.6085 25.4131 46.7533 25.4114 46.913V47.5738C25.4114 47.7739 25.4482 47.9467 25.5219 48.0924C25.5974 48.2381 25.7036 48.3504 25.8405 48.4294C25.9774 48.5084 26.1397 48.5479 26.3275 48.5479C26.4521 48.5479 26.5662 48.5303 26.6698 48.4952C26.7733 48.4601 26.8619 48.4075 26.9357 48.3373C27.0094 48.2671 27.0655 48.1811 27.1041 48.0793L28.1414 48.1477C28.0887 48.3969 27.9808 48.6146 27.8176 48.8006C27.6561 48.9849 27.4473 49.1288 27.191 49.2323C26.9365 49.3341 26.6426 49.385 26.3091 49.385ZM32.2615 46.4154L31.2347 46.4786C31.2172 46.3909 31.1795 46.3119 31.1215 46.2417C31.0636 46.1697 30.9873 46.1127 30.8925 46.0706C30.7995 46.0267 30.688 46.0047 30.5582 46.0047C30.3844 46.0047 30.2378 46.0416 30.1185 46.1153C29.9992 46.1873 29.9395 46.2838 29.9395 46.4049C29.9395 46.5014 29.9781 46.583 30.0553 46.6497C30.1325 46.7164 30.2651 46.77 30.4528 46.8103L31.1847 46.9578C31.5779 47.0385 31.871 47.1684 32.064 47.3474C32.2571 47.5264 32.3536 47.7616 32.3536 48.0529C32.3536 48.3179 32.2755 48.5505 32.1193 48.7506C31.9649 48.9507 31.7525 49.1069 31.4822 49.2192C31.2137 49.3298 30.9039 49.385 30.5529 49.385C30.0176 49.385 29.5911 49.2736 29.2734 49.0507C28.9575 48.826 28.7724 48.5207 28.7179 48.1345L29.821 48.0766C29.8544 48.2398 29.9351 48.3645 30.0632 48.4505C30.1913 48.5347 30.3554 48.5768 30.5555 48.5768C30.7521 48.5768 30.91 48.5391 31.0294 48.4636C31.1505 48.3864 31.2119 48.2872 31.2137 48.1661C31.2119 48.0643 31.1689 47.981 31.0847 47.916C31.0004 47.8493 30.8706 47.7984 30.695 47.7633L29.9948 47.6238C29.5999 47.5448 29.3059 47.4079 29.1128 47.2131C28.9215 47.0183 28.8259 46.77 28.8259 46.4681C28.8259 46.2083 28.8961 45.9846 29.0365 45.7968C29.1787 45.609 29.3779 45.4642 29.6341 45.3624C29.8921 45.2606 30.194 45.2097 30.5397 45.2097C31.0505 45.2097 31.4524 45.3176 31.7455 45.5335C32.0403 45.7494 32.2123 46.0434 32.2615 46.4154ZM35.2107 45.2623V46.1048H32.7755V45.2623H35.2107ZM33.3283 44.2935H34.4498V48.0635C34.4498 48.167 34.4656 48.2477 34.4972 48.3057C34.5288 48.3618 34.5727 48.4013 34.6289 48.4241C34.6868 48.4469 34.7535 48.4584 34.8289 48.4584C34.8816 48.4584 34.9342 48.454 34.9869 48.4452C35.0395 48.4347 35.0799 48.4268 35.108 48.4215L35.2844 49.256C35.2282 49.2736 35.1492 49.2938 35.0474 49.3166C34.9456 49.3412 34.8219 49.3561 34.6762 49.3613C34.406 49.3719 34.169 49.3359 33.9654 49.2534C33.7636 49.1709 33.6065 49.0428 33.4942 48.869C33.3819 48.6953 33.3266 48.4759 33.3283 48.2109V44.2935ZM35.9412 49.3061V45.2623H37.0627V49.3061H35.9412ZM36.5046 44.7411C36.3379 44.7411 36.1948 44.6858 36.0755 44.5752C35.9579 44.4629 35.8991 44.3286 35.8991 44.1724C35.8991 44.018 35.9579 43.8855 36.0755 43.7749C36.1948 43.6626 36.3379 43.6064 36.5046 43.6064C36.6713 43.6064 36.8135 43.6626 36.9311 43.7749C37.0504 43.8855 37.1101 44.018 37.1101 44.1724C37.1101 44.3286 37.0504 44.4629 36.9311 44.5752C36.8135 44.6858 36.6713 44.7411 36.5046 44.7411ZM39.0826 46.9683V49.3061H37.9611V45.2623H39.0299V45.9758H39.0773C39.1668 45.7406 39.3169 45.5546 39.5275 45.4177C39.7381 45.279 39.9935 45.2097 40.2936 45.2097C40.5744 45.2097 40.8193 45.2711 41.0281 45.394C41.237 45.5168 41.3993 45.6923 41.5151 45.9205C41.631 46.1469 41.6889 46.4172 41.6889 46.7314V49.3061H40.5674V46.9314C40.5692 46.684 40.506 46.4909 40.3778 46.3523C40.2497 46.2118 40.0733 46.1416 39.8487 46.1416C39.6978 46.1416 39.5644 46.1741 39.4485 46.2391C39.3344 46.304 39.2449 46.3988 39.18 46.5234C39.1168 46.6462 39.0844 46.7945 39.0826 46.9683ZM44.3946 50.9067C44.0313 50.9067 43.7197 50.8567 43.46 50.7566C43.202 50.6584 42.9967 50.5241 42.844 50.3538C42.6913 50.1836 42.5921 49.9923 42.5465 49.7799L43.5837 49.6404C43.6153 49.7211 43.6653 49.7966 43.7338 49.8668C43.8022 49.937 43.8926 49.9932 44.0049 50.0353C44.119 50.0792 44.2577 50.1011 44.4209 50.1011C44.6649 50.1011 44.8658 50.0414 45.0238 49.9221C45.1835 49.8045 45.2633 49.6071 45.2633 49.3298V48.59H45.216C45.1668 48.7023 45.0931 48.8085 44.9948 48.9085C44.8965 49.0086 44.7702 49.0902 44.6157 49.1534C44.4613 49.2166 44.277 49.2481 44.0629 49.2481C43.7592 49.2481 43.4828 49.1779 43.2336 49.0375C42.9861 48.8954 42.7887 48.6786 42.6412 48.3873C42.4956 48.0942 42.4227 47.7239 42.4227 47.2763C42.4227 46.8182 42.4973 46.4356 42.6465 46.1285C42.7957 45.8213 42.994 45.5914 43.2415 45.4387C43.4907 45.286 43.7636 45.2097 44.0602 45.2097C44.2866 45.2097 44.4762 45.2483 44.6289 45.3255C44.7816 45.401 44.9044 45.4958 44.9974 45.6099C45.0922 45.7222 45.1651 45.8327 45.216 45.9416H45.2581V45.2623H46.3717V49.3456C46.3717 49.6895 46.2874 49.9774 46.1189 50.2091C45.9505 50.4407 45.717 50.6145 45.4187 50.7303C45.1221 50.8479 44.7807 50.9067 44.3946 50.9067ZM44.4183 48.4057C44.599 48.4057 44.7517 48.3609 44.8763 48.2714C45.0027 48.1802 45.0992 48.0503 45.1659 47.8818C45.2344 47.7116 45.2686 47.508 45.2686 47.271C45.2686 47.0341 45.2353 46.8288 45.1686 46.655C45.1019 46.4795 45.0053 46.3435 44.879 46.2469C44.7526 46.1504 44.599 46.1022 44.4183 46.1022C44.234 46.1022 44.0787 46.1522 43.9523 46.2522C43.8259 46.3505 43.7303 46.4874 43.6653 46.6629C43.6004 46.8384 43.5679 47.0411 43.5679 47.271C43.5679 47.5045 43.6004 47.7063 43.6653 47.8765C43.732 48.045 43.8277 48.1758 43.9523 48.2688C44.0787 48.3601 44.234 48.4057 44.4183 48.4057ZM50.1015 43.9144V49.3061H48.98V43.9144H50.1015ZM52.8427 49.385C52.4267 49.385 52.0687 49.3008 51.7686 49.1323C51.4702 48.9621 51.2403 48.7216 51.0788 48.411C50.9173 48.0986 50.8366 47.7291 50.8366 47.3026C50.8366 46.8867 50.9173 46.5216 51.0788 46.2075C51.2403 45.8933 51.4676 45.6485 51.7607 45.473C52.0555 45.2974 52.4013 45.2097 52.7979 45.2097C53.0647 45.2097 53.313 45.2527 53.543 45.3387C53.7746 45.4229 53.9765 45.5502 54.1485 45.7204C54.3222 45.8907 54.4574 46.1048 54.5539 46.3628C54.6504 46.619 54.6987 46.9191 54.6987 47.2631V47.5712H51.2842V46.8761H53.643C53.643 46.7147 53.6079 46.5716 53.5377 46.447C53.4675 46.3224 53.3701 46.225 53.2455 46.1548C53.1226 46.0828 52.9796 46.0469 52.8164 46.0469C52.6461 46.0469 52.4952 46.0864 52.3635 46.1653C52.2337 46.2426 52.1319 46.347 52.0582 46.4786C51.9844 46.6085 51.9467 46.7533 51.945 46.913V47.5738C51.945 47.7739 51.9818 47.9467 52.0555 48.0924C52.131 48.2381 52.2372 48.3504 52.3741 48.4294C52.511 48.5084 52.6733 48.5479 52.8611 48.5479C52.9857 48.5479 53.0998 48.5303 53.2033 48.4952C53.3069 48.4601 53.3955 48.4075 53.4692 48.3373C53.543 48.2671 53.5991 48.1811 53.6377 48.0793L54.675 48.1477C54.6223 48.3969 54.5144 48.6146 54.3512 48.8006C54.1897 48.9849 53.9808 49.1288 53.7246 49.2323C53.4701 49.3341 53.1761 49.385 52.8427 49.385ZM56.5836 49.3824C56.3256 49.3824 56.0957 49.3377 55.8939 49.2481C55.6921 49.1569 55.5323 49.0226 55.4148 48.8454C55.2989 48.6663 55.241 48.4434 55.241 48.1767C55.241 47.952 55.2822 47.7633 55.3647 47.6106C55.4472 47.458 55.5595 47.3351 55.7017 47.2421C55.8439 47.1491 56.0053 47.0789 56.1861 47.0315C56.3686 46.9841 56.5599 46.9507 56.76 46.9314C56.9952 46.9069 57.1848 46.884 57.3287 46.863C57.4726 46.8402 57.577 46.8068 57.642 46.7629C57.7069 46.7191 57.7394 46.6541 57.7394 46.5681V46.5523C57.7394 46.3856 57.6867 46.2566 57.5814 46.1653C57.4779 46.0741 57.3304 46.0284 57.1391 46.0284C56.9373 46.0284 56.7767 46.0732 56.6574 46.1627C56.538 46.2505 56.459 46.361 56.4204 46.4944L55.3832 46.4102C55.4358 46.1645 55.5394 45.9521 55.6938 45.7731C55.8483 45.5923 56.0475 45.4537 56.2914 45.3571C56.5371 45.2588 56.8215 45.2097 57.1444 45.2097C57.369 45.2097 57.584 45.236 57.7894 45.2887C57.9965 45.3413 58.1799 45.4229 58.3396 45.5335C58.5011 45.6441 58.6283 45.7862 58.7213 45.96C58.8144 46.132 58.8609 46.3382 58.8609 46.5787V49.3061H57.7973V48.7453H57.7657C57.7007 48.8717 57.6139 48.9831 57.5051 49.0797C57.3962 49.1744 57.2655 49.249 57.1128 49.3034C56.9601 49.3561 56.7837 49.3824 56.5836 49.3824ZM56.9048 48.6084C57.0698 48.6084 57.2155 48.5759 57.3418 48.511C57.4682 48.4443 57.5674 48.3548 57.6393 48.2425C57.7113 48.1302 57.7473 48.0029 57.7473 47.8607V47.4316C57.7122 47.4544 57.6639 47.4755 57.6025 47.4948C57.5428 47.5124 57.4752 47.529 57.3998 47.5448C57.3243 47.5589 57.2488 47.572 57.1733 47.5843C57.0979 47.5949 57.0294 47.6045 56.968 47.6133C56.8364 47.6326 56.7214 47.6633 56.6231 47.7054C56.5248 47.7475 56.4485 47.8046 56.3941 47.8765C56.3397 47.9467 56.3125 48.0345 56.3125 48.1398C56.3125 48.2925 56.3678 48.4092 56.4783 48.4899C56.5907 48.5689 56.7328 48.6084 56.9048 48.6084ZM59.7309 49.3061V45.2623H60.8182V45.9679H60.8603C60.9341 45.7169 61.0578 45.5274 61.2315 45.3992C61.4053 45.2694 61.6054 45.2044 61.8318 45.2044C61.8879 45.2044 61.9485 45.2079 62.0134 45.215C62.0784 45.222 62.1354 45.2316 62.1845 45.2439V46.2391C62.1319 46.2233 62.0591 46.2092 61.966 46.1969C61.873 46.1846 61.7879 46.1785 61.7107 46.1785C61.5457 46.1785 61.3983 46.2145 61.2684 46.2864C61.1403 46.3566 61.0385 46.4549 60.963 46.5813C60.8893 46.7077 60.8524 46.8533 60.8524 47.0183V49.3061H59.7309ZM63.8859 46.9683V49.3061H62.7644V45.2623H63.8332V45.9758H63.8806C63.9701 45.7406 64.1202 45.5546 64.3308 45.4177C64.5414 45.279 64.7968 45.2097 65.0969 45.2097C65.3777 45.2097 65.6225 45.2711 65.8314 45.394C66.0402 45.5168 66.2026 45.6923 66.3184 45.9205C66.4343 46.1469 66.4922 46.4172 66.4922 46.7314V49.3061H65.3707V46.9314C65.3724 46.684 65.3093 46.4909 65.1811 46.3523C65.053 46.2118 64.8766 46.1416 64.652 46.1416C64.501 46.1416 64.3677 46.1741 64.2518 46.2391C64.1377 46.304 64.0482 46.3988 63.9833 46.5234C63.9201 46.6462 63.8876 46.7945 63.8859 46.9683ZM67.3761 49.3061V45.2623H68.4976V49.3061H67.3761ZM67.9395 44.7411C67.7727 44.7411 67.6297 44.6858 67.5104 44.5752C67.3928 44.4629 67.334 44.3286 67.334 44.1724C67.334 44.018 67.3928 43.8855 67.5104 43.7749C67.6297 43.6626 67.7727 43.6064 67.9395 43.6064C68.1062 43.6064 68.2484 43.6626 68.366 43.7749C68.4853 43.8855 68.545 44.018 68.545 44.1724C68.545 44.3286 68.4853 44.4629 68.366 44.5752C68.2484 44.6858 68.1062 44.7411 67.9395 44.7411ZM70.5175 46.9683V49.3061H69.396V45.2623H70.4648V45.9758H70.5122C70.6017 45.7406 70.7518 45.5546 70.9624 45.4177C71.173 45.279 71.4284 45.2097 71.7285 45.2097C72.0093 45.2097 72.2541 45.2711 72.463 45.394C72.6718 45.5168 72.8342 45.6923 72.95 45.9205C73.0659 46.1469 73.1238 46.4172 73.1238 46.7314V49.3061H72.0023V46.9314C72.004 46.684 71.9408 46.4909 71.8127 46.3523C71.6846 46.2118 71.5082 46.1416 71.2836 46.1416C71.1326 46.1416 70.9992 46.1741 70.8834 46.2391C70.7693 46.304 70.6798 46.3988 70.6149 46.5234C70.5517 46.6462 70.5192 46.7945 70.5175 46.9683ZM75.8295 50.9067C75.4661 50.9067 75.1546 50.8567 74.8949 50.7566C74.6369 50.6584 74.4315 50.5241 74.2788 50.3538C74.1261 50.1836 74.027 49.9923 73.9813 49.7799L75.0186 49.6404C75.0502 49.7211 75.1002 49.7966 75.1687 49.8668C75.2371 49.937 75.3275 49.9932 75.4398 50.0353C75.5539 50.0792 75.6926 50.1011 75.8558 50.1011C76.0997 50.1011 76.3007 50.0414 76.4586 49.9221C76.6184 49.8045 76.6982 49.6071 76.6982 49.3298V48.59H76.6508C76.6017 48.7023 76.528 48.8085 76.4297 48.9085C76.3314 49.0086 76.205 49.0902 76.0506 49.1534C75.8961 49.2166 75.7119 49.2481 75.4977 49.2481C75.1941 49.2481 74.9177 49.1779 74.6685 49.0375C74.421 48.8954 74.2235 48.6786 74.0761 48.3873C73.9305 48.0942 73.8576 47.7239 73.8576 47.2763C73.8576 46.8182 73.9322 46.4356 74.0814 46.1285C74.2306 45.8213 74.4289 45.5914 74.6764 45.4387C74.9256 45.286 75.1985 45.2097 75.4951 45.2097C75.7215 45.2097 75.9111 45.2483 76.0638 45.3255C76.2164 45.401 76.3393 45.4958 76.4323 45.6099C76.5271 45.7222 76.5999 45.8327 76.6508 45.9416H76.693V45.2623H77.8066V49.3456C77.8066 49.6895 77.7223 49.9774 77.5538 50.2091C77.3853 50.4407 77.1519 50.6145 76.8535 50.7303C76.5569 50.8479 76.2156 50.9067 75.8295 50.9067ZM75.8531 48.4057C76.0339 48.4057 76.1866 48.3609 76.3112 48.2714C76.4376 48.1802 76.5341 48.0503 76.6008 47.8818C76.6693 47.7116 76.7035 47.508 76.7035 47.271C76.7035 47.0341 76.6701 46.8288 76.6034 46.655C76.5368 46.4795 76.4402 46.3435 76.3139 46.2469C76.1875 46.1504 76.0339 46.1022 75.8531 46.1022C75.6689 46.1022 75.5135 46.1522 75.3872 46.2522C75.2608 46.3505 75.1652 46.4874 75.1002 46.6629C75.0353 46.8384 75.0028 47.0411 75.0028 47.271C75.0028 47.5045 75.0353 47.7063 75.1002 47.8765C75.1669 48.045 75.2626 48.1758 75.3872 48.2688C75.5135 48.3601 75.6689 48.4057 75.8531 48.4057Z" fill="white"/>
<path d="M8.65378 65.8249H10.0607V66.2516H8.12907V62.2326H8.65378V65.8249ZM11.996 66.3035C11.7 66.3035 11.4309 66.2362 11.1888 66.1017C10.9504 65.9671 10.7621 65.7768 10.6237 65.5308C10.4891 65.281 10.4219 64.9927 10.4219 64.6659C10.4219 64.343 10.4911 64.0586 10.6295 63.8125C10.7717 63.5627 10.9639 63.3724 11.2061 63.2417C11.4482 63.1072 11.7192 63.0399 12.0191 63.0399C12.3189 63.0399 12.5899 63.1072 12.8321 63.2417C13.0743 63.3724 13.2645 63.5608 13.4029 63.8068C13.5451 64.0528 13.6163 64.3392 13.6163 64.6659C13.6163 64.9927 13.5432 65.281 13.3972 65.5308C13.2549 65.7768 13.0608 65.9671 12.8148 66.1017C12.5688 66.2362 12.2958 66.3035 11.996 66.3035ZM11.996 65.8422C12.1844 65.8422 12.3612 65.798 12.5265 65.7096C12.6918 65.6212 12.8244 65.4885 12.9243 65.3117C13.0281 65.1349 13.08 64.9196 13.08 64.6659C13.08 64.4122 13.03 64.1969 12.9301 64.0201C12.8302 63.8433 12.6995 63.7126 12.538 63.628C12.3766 63.5396 12.2017 63.4954 12.0133 63.4954C11.8211 63.4954 11.6443 63.5396 11.4828 63.628C11.3252 63.7126 11.1984 63.8433 11.1023 64.0201C11.0062 64.1969 10.9581 64.4122 10.9581 64.6659C10.9581 64.9235 11.0042 65.1406 11.0965 65.3175C11.1926 65.4943 11.3195 65.6269 11.4771 65.7153C11.6347 65.7999 11.8076 65.8422 11.996 65.8422ZM14.8309 63.605C14.9231 63.4243 15.0538 63.284 15.223 63.184C15.3959 63.0841 15.6054 63.0341 15.8515 63.0341V63.5761H15.7131C15.1249 63.5761 14.8309 63.8952 14.8309 64.5333V66.2516H14.3062V63.0918H14.8309V63.605ZM19.3402 64.5506C19.3402 64.6505 19.3344 64.7562 19.3229 64.8677H16.7974C16.8166 65.1791 16.9223 65.4232 17.1145 65.6C17.3105 65.773 17.5469 65.8595 17.8237 65.8595C18.0505 65.8595 18.2389 65.8076 18.3888 65.7038C18.5425 65.5962 18.6502 65.4539 18.7117 65.2771H19.2768C19.1922 65.5808 19.023 65.8287 18.7693 66.0209C18.5156 66.2093 18.2004 66.3035 17.8237 66.3035C17.5239 66.3035 17.2548 66.2362 17.0165 66.1017C16.782 65.9671 16.5975 65.7768 16.4629 65.5308C16.3284 65.281 16.2611 64.9927 16.2611 64.6659C16.2611 64.3392 16.3265 64.0528 16.4572 63.8068C16.5879 63.5608 16.7704 63.3724 17.0049 63.2417C17.2433 63.1072 17.5162 63.0399 17.8237 63.0399C18.1235 63.0399 18.3888 63.1052 18.6194 63.2359C18.8501 63.3666 19.0269 63.5473 19.1499 63.7779C19.2768 64.0047 19.3402 64.2623 19.3402 64.5506ZM18.7982 64.441C18.7982 64.2411 18.754 64.0701 18.6656 63.9279C18.5771 63.7818 18.4561 63.6722 18.3023 63.5992C18.1524 63.5223 17.9852 63.4839 17.8006 63.4839C17.5354 63.4839 17.3086 63.5684 17.1203 63.7376C16.9357 63.9067 16.83 64.1412 16.8031 64.441H18.7982ZM23.8326 63.0341C24.0786 63.0341 24.2977 63.086 24.4899 63.1898C24.6821 63.2898 24.834 63.4416 24.9454 63.6453C25.0569 63.8491 25.1127 64.097 25.1127 64.3891V66.2516H24.5937V64.4641C24.5937 64.1489 24.5149 63.9086 24.3573 63.7433C24.2035 63.5742 23.994 63.4896 23.7288 63.4896C23.4559 63.4896 23.2387 63.5781 23.0772 63.7549C22.9158 63.9279 22.8351 64.1796 22.8351 64.5102V66.2516H22.3161V64.4641C22.3161 64.1489 22.2373 63.9086 22.0797 63.7433C21.926 63.5742 21.7165 63.4896 21.4512 63.4896C21.1783 63.4896 20.9611 63.5781 20.7997 63.7549C20.6382 63.9279 20.5575 64.1796 20.5575 64.5102V66.2516H20.0328V63.0918H20.5575V63.5473C20.6613 63.382 20.7997 63.2552 20.9726 63.1667C21.1495 63.0783 21.3436 63.0341 21.555 63.0341C21.8203 63.0341 22.0547 63.0937 22.2585 63.2129C22.4622 63.332 22.614 63.5069 22.714 63.7376C22.8024 63.5146 22.9485 63.3416 23.1522 63.2186C23.3559 63.0956 23.5827 63.0341 23.8326 63.0341ZM27.7816 62.5786C27.6817 62.5786 27.5971 62.544 27.5279 62.4748C27.4587 62.4056 27.4241 62.3211 27.4241 62.2211C27.4241 62.1212 27.4587 62.0366 27.5279 61.9674C27.5971 61.8982 27.6817 61.8636 27.7816 61.8636C27.8777 61.8636 27.9584 61.8982 28.0238 61.9674C28.093 62.0366 28.1276 62.1212 28.1276 62.2211C28.1276 62.3211 28.093 62.4056 28.0238 62.4748C27.9584 62.544 27.8777 62.5786 27.7816 62.5786ZM28.0353 63.0918V66.2516H27.5106V63.0918H28.0353ZM29.4543 63.6742C29.5581 63.4935 29.7119 63.3436 29.9156 63.2244C30.1232 63.1014 30.3634 63.0399 30.6363 63.0399C30.917 63.0399 31.1707 63.1072 31.3975 63.2417C31.6281 63.3762 31.8088 63.5665 31.9395 63.8125C32.0702 64.0547 32.1355 64.3372 32.1355 64.6601C32.1355 64.9792 32.0702 65.2637 31.9395 65.5135C31.8088 65.7634 31.6281 65.9575 31.3975 66.0959C31.1707 66.2343 30.917 66.3035 30.6363 66.3035C30.3673 66.3035 30.1289 66.2439 29.9214 66.1247C29.7176 66.0017 29.5619 65.8499 29.4543 65.6692V67.7507H28.9296V63.0918H29.4543V63.6742ZM31.5993 64.6601C31.5993 64.4218 31.5512 64.2142 31.4551 64.0374C31.359 63.8606 31.2283 63.726 31.063 63.6338C30.9016 63.5415 30.7228 63.4954 30.5268 63.4954C30.3346 63.4954 30.1558 63.5435 29.9905 63.6396C29.8291 63.7318 29.6984 63.8683 29.5985 64.0489C29.5024 64.2258 29.4543 64.4314 29.4543 64.6659C29.4543 64.9042 29.5024 65.1137 29.5985 65.2944C29.6984 65.4712 29.8291 65.6077 29.9905 65.7038C30.1558 65.7961 30.3346 65.8422 30.5268 65.8422C30.7228 65.8422 30.9016 65.7961 31.063 65.7038C31.2283 65.6077 31.359 65.4712 31.4551 65.2944C31.5512 65.1137 31.5993 64.9023 31.5993 64.6601ZM33.9448 66.3035C33.7026 66.3035 33.4854 66.2631 33.2932 66.1824C33.101 66.0978 32.9492 65.9825 32.8377 65.8364C32.7262 65.6865 32.6647 65.5154 32.6532 65.3232H33.1952C33.2106 65.4808 33.2836 65.6096 33.4143 65.7096C33.5489 65.8095 33.7238 65.8595 33.939 65.8595C34.1389 65.8595 34.2965 65.8153 34.4118 65.7269C34.5272 65.6384 34.5848 65.527 34.5848 65.3924C34.5848 65.254 34.5233 65.1522 34.4003 65.0868C34.2773 65.0176 34.087 64.9504 33.8295 64.885C33.595 64.8235 33.4028 64.762 33.2529 64.7005C33.1068 64.6352 32.9799 64.541 32.8723 64.418C32.7685 64.2911 32.7166 64.1258 32.7166 63.9221C32.7166 63.7606 32.7647 63.6126 32.8608 63.4781C32.9569 63.3436 33.0933 63.2379 33.2702 63.161C33.447 63.0803 33.6488 63.0399 33.8756 63.0399C34.2254 63.0399 34.5079 63.1283 34.7232 63.3051C34.9385 63.482 35.0538 63.7241 35.0692 64.0316H34.5445C34.5329 63.8664 34.4657 63.7337 34.3426 63.6338C34.2235 63.5338 34.062 63.4839 33.8583 63.4839C33.6699 63.4839 33.52 63.5242 33.4085 63.605C33.2971 63.6857 33.2413 63.7914 33.2413 63.9221C33.2413 64.0259 33.274 64.1124 33.3394 64.1816C33.4085 64.2469 33.4931 64.3007 33.5931 64.343C33.6968 64.3815 33.8391 64.4257 34.0197 64.4756C34.2465 64.5371 34.4311 64.5986 34.5733 64.6601C34.7155 64.7178 34.8366 64.8062 34.9365 64.9254C35.0403 65.0445 35.0941 65.2002 35.098 65.3924C35.098 65.5654 35.0499 65.7211 34.9538 65.8595C34.8577 65.9979 34.7213 66.1074 34.5445 66.1881C34.3715 66.265 34.1716 66.3035 33.9448 66.3035ZM38.641 63.0918V66.2516H38.1163V65.7845C38.0163 65.946 37.876 66.0728 37.6954 66.1651C37.5185 66.2535 37.3225 66.2977 37.1072 66.2977C36.8612 66.2977 36.6402 66.2477 36.4441 66.1478C36.2481 66.044 36.0924 65.8902 35.9771 65.6865C35.8656 65.4828 35.8099 65.2348 35.8099 64.9427V63.0918H36.3288V64.8735C36.3288 65.1849 36.4076 65.4251 36.5652 65.5942C36.7228 65.7595 36.9381 65.8422 37.211 65.8422C37.4916 65.8422 37.7127 65.7557 37.8741 65.5827C38.0356 65.4097 38.1163 65.1579 38.1163 64.8274V63.0918H38.641ZM43.3268 63.0341C43.5728 63.0341 43.7919 63.086 43.9841 63.1898C44.1763 63.2898 44.3281 63.4416 44.4396 63.6453C44.5511 63.8491 44.6068 64.097 44.6068 64.3891V66.2516H44.0879V64.4641C44.0879 64.1489 44.0091 63.9086 43.8515 63.7433C43.6977 63.5742 43.4882 63.4896 43.223 63.4896C42.95 63.4896 42.7329 63.5781 42.5714 63.7549C42.41 63.9279 42.3292 64.1796 42.3292 64.5102V66.2516H41.8103V64.4641C41.8103 64.1489 41.7315 63.9086 41.5739 63.7433C41.4201 63.5742 41.2106 63.4896 40.9454 63.4896C40.6725 63.4896 40.4553 63.5781 40.2938 63.7549C40.1324 63.9279 40.0516 64.1796 40.0516 64.5102V66.2516H39.5269V63.0918H40.0516V63.5473C40.1554 63.382 40.2938 63.2552 40.4668 63.1667C40.6436 63.0783 40.8378 63.0341 41.0492 63.0341C41.3144 63.0341 41.5489 63.0937 41.7526 63.2129C41.9564 63.332 42.1082 63.5069 42.2081 63.7376C42.2966 63.5146 42.4426 63.3416 42.6464 63.2186C42.8501 63.0956 43.0769 63.0341 43.3268 63.0341ZM46.8087 64.6601C46.8087 64.3372 46.8741 64.0547 47.0048 63.8125C47.1355 63.5665 47.3142 63.3762 47.541 63.2417C47.7717 63.1072 48.0292 63.0399 48.3137 63.0399C48.5597 63.0399 48.7884 63.0975 48.9998 63.2129C49.2112 63.3243 49.3727 63.4723 49.4842 63.6569V61.9847H50.0146V66.2516H49.4842V65.6577C49.3804 65.846 49.2266 66.0017 49.0229 66.1247C48.8191 66.2439 48.5808 66.3035 48.3079 66.3035C48.0273 66.3035 47.7717 66.2343 47.541 66.0959C47.3142 65.9575 47.1355 65.7634 47.0048 65.5135C46.8741 65.2637 46.8087 64.9792 46.8087 64.6601ZM49.4842 64.6659C49.4842 64.4276 49.4361 64.22 49.34 64.0432C49.2439 63.8664 49.1132 63.7318 48.9479 63.6396C48.7865 63.5435 48.6077 63.4954 48.4117 63.4954C48.2156 63.4954 48.0369 63.5415 47.8754 63.6338C47.714 63.726 47.5852 63.8606 47.4891 64.0374C47.393 64.2142 47.345 64.4218 47.345 64.6601C47.345 64.9023 47.393 65.1137 47.4891 65.2944C47.5852 65.4712 47.714 65.6077 47.8754 65.7038C48.0369 65.7961 48.2156 65.8422 48.4117 65.8422C48.6077 65.8422 48.7865 65.7961 48.9479 65.7038C49.1132 65.6077 49.2439 65.4712 49.34 65.2944C49.4361 65.1137 49.4842 64.9042 49.4842 64.6659ZM52.2794 66.3035C51.9834 66.3035 51.7144 66.2362 51.4722 66.1017C51.2339 65.9671 51.0455 65.7768 50.9071 65.5308C50.7726 65.281 50.7053 64.9927 50.7053 64.6659C50.7053 64.343 50.7745 64.0586 50.9129 63.8125C51.0551 63.5627 51.2473 63.3724 51.4895 63.2417C51.7317 63.1072 52.0027 63.0399 52.3025 63.0399C52.6023 63.0399 52.8733 63.1072 53.1155 63.2417C53.3577 63.3724 53.548 63.5608 53.6863 63.8068C53.8286 64.0528 53.8997 64.3392 53.8997 64.6659C53.8997 64.9927 53.8267 65.281 53.6806 65.5308C53.5383 65.7768 53.3442 65.9671 53.0982 66.1017C52.8522 66.2362 52.5793 66.3035 52.2794 66.3035ZM52.2794 65.8422C52.4678 65.8422 52.6446 65.798 52.8099 65.7096C52.9752 65.6212 53.1078 65.4885 53.2078 65.3117C53.3116 65.1349 53.3634 64.9196 53.3634 64.6659C53.3634 64.4122 53.3135 64.1969 53.2135 64.0201C53.1136 63.8433 52.9829 63.7126 52.8214 63.628C52.66 63.5396 52.4851 63.4954 52.2967 63.4954C52.1045 63.4954 51.9277 63.5396 51.7663 63.628C51.6086 63.7126 51.4818 63.8433 51.3857 64.0201C51.2896 64.1969 51.2415 64.4122 51.2415 64.6659C51.2415 64.9235 51.2877 65.1406 51.3799 65.3175C51.476 65.4943 51.6029 65.6269 51.7605 65.7153C51.9181 65.7999 52.0911 65.8422 52.2794 65.8422ZM55.1143 61.9847V66.2516H54.5896V61.9847H55.1143ZM57.3867 66.3035C57.0907 66.3035 56.8216 66.2362 56.5794 66.1017C56.3411 65.9671 56.1527 65.7768 56.0143 65.5308C55.8798 65.281 55.8125 64.9927 55.8125 64.6659C55.8125 64.343 55.8817 64.0586 56.0201 63.8125C56.1623 63.5627 56.3545 63.3724 56.5967 63.2417C56.8389 63.1072 57.1099 63.0399 57.4097 63.0399C57.7096 63.0399 57.9806 63.1072 58.2227 63.2417C58.4649 63.3724 58.6552 63.5608 58.7936 63.8068C58.9358 64.0528 59.0069 64.3392 59.0069 64.6659C59.0069 64.9927 58.9339 65.281 58.7878 65.5308C58.6456 65.7768 58.4514 65.9671 58.2054 66.1017C57.9594 66.2362 57.6865 66.3035 57.3867 66.3035ZM57.3867 65.8422C57.575 65.8422 57.7518 65.798 57.9171 65.7096C58.0824 65.6212 58.215 65.4885 58.315 65.3117C58.4188 65.1349 58.4707 64.9196 58.4707 64.6659C58.4707 64.4122 58.4207 64.1969 58.3208 64.0201C58.2208 63.8433 58.0901 63.7126 57.9287 63.628C57.7672 63.5396 57.5923 63.4954 57.404 63.4954C57.2118 63.4954 57.0349 63.5396 56.8735 63.628C56.7159 63.7126 56.589 63.8433 56.4929 64.0201C56.3968 64.1969 56.3488 64.4122 56.3488 64.6659C56.3488 64.9235 56.3949 65.1406 56.4872 65.3175C56.5833 65.4943 56.7101 65.6269 56.8677 65.7153C57.0253 65.7999 57.1983 65.8422 57.3867 65.8422ZM60.2215 63.605C60.3138 63.4243 60.4445 63.284 60.6136 63.184C60.7866 63.0841 60.9961 63.0341 61.2421 63.0341V63.5761H61.1037C60.5156 63.5761 60.2215 63.8952 60.2215 64.5333V66.2516H59.6968V63.0918H60.2215V63.605ZM64.5037 66.3035C64.2615 66.3035 64.0443 66.2631 63.8521 66.1824C63.6599 66.0978 63.5081 65.9825 63.3966 65.8364C63.2851 65.6865 63.2236 65.5154 63.2121 65.3232H63.7541C63.7694 65.4808 63.8425 65.6096 63.9732 65.7096C64.1077 65.8095 64.2826 65.8595 64.4979 65.8595C64.6978 65.8595 64.8554 65.8153 64.9707 65.7269C65.086 65.6384 65.1437 65.527 65.1437 65.3924C65.1437 65.254 65.0822 65.1522 64.9592 65.0868C64.8362 65.0176 64.6459 64.9504 64.3883 64.885C64.1538 64.8235 63.9616 64.762 63.8117 64.7005C63.6657 64.6352 63.5388 64.541 63.4312 64.418C63.3274 64.2911 63.2755 64.1258 63.2755 63.9221C63.2755 63.7606 63.3235 63.6126 63.4196 63.4781C63.5157 63.3436 63.6522 63.2379 63.829 63.161C64.0059 63.0803 64.2077 63.0399 64.4345 63.0399C64.7843 63.0399 65.0668 63.1283 65.2821 63.3051C65.4973 63.482 65.6127 63.7241 65.628 64.0316H65.1033C65.0918 63.8664 65.0245 63.7337 64.9015 63.6338C64.7823 63.5338 64.6209 63.4839 64.4172 63.4839C64.2288 63.4839 64.0789 63.5242 63.9674 63.605C63.8559 63.6857 63.8002 63.7914 63.8002 63.9221C63.8002 64.0259 63.8329 64.1124 63.8982 64.1816C63.9674 64.2469 64.052 64.3007 64.1519 64.343C64.2557 64.3815 64.3979 64.4257 64.5786 64.4756C64.8054 64.5371 64.9899 64.5986 65.1322 64.6601C65.2744 64.7178 65.3955 64.8062 65.4954 64.9254C65.5992 65.0445 65.653 65.2002 65.6569 65.3924C65.6569 65.5654 65.6088 65.7211 65.5127 65.8595C65.4166 65.9979 65.2801 66.1074 65.1033 66.1881C64.9303 66.265 64.7305 66.3035 64.5037 66.3035ZM66.6686 62.5786C66.5686 62.5786 66.4841 62.544 66.4149 62.4748C66.3457 62.4056 66.3111 62.3211 66.3111 62.2211C66.3111 62.1212 66.3457 62.0366 66.4149 61.9674C66.4841 61.8982 66.5686 61.8636 66.6686 61.8636C66.7647 61.8636 66.8454 61.8982 66.9107 61.9674C66.9799 62.0366 67.0145 62.1212 67.0145 62.2211C67.0145 62.3211 66.9799 62.4056 66.9107 62.4748C66.8454 62.544 66.7647 62.5786 66.6686 62.5786ZM66.9223 63.0918V66.2516H66.3976V63.0918H66.9223ZM68.4566 63.5242V65.3867C68.4566 65.5404 68.4893 65.65 68.5546 65.7153C68.62 65.7768 68.7334 65.8076 68.8948 65.8076H69.2811V66.2516H68.8083C68.5162 66.2516 68.2971 66.1843 68.151 66.0498C68.0049 65.9152 67.9319 65.6942 67.9319 65.3867V63.5242H67.5225V63.0918H67.9319V62.2961H68.4566V63.0918H69.2811V63.5242H68.4566ZM71.2581 64.6601C71.2581 64.3372 71.3234 64.0547 71.4541 63.8125C71.5848 63.5665 71.7636 63.3762 71.9904 63.2417C72.221 63.1072 72.4766 63.0399 72.7572 63.0399C73.034 63.0399 73.2743 63.0995 73.478 63.2186C73.6817 63.3378 73.8336 63.4877 73.9335 63.6684V63.0918H74.464V66.2516H73.9335V65.6634C73.8297 65.8479 73.674 66.0017 73.4665 66.1247C73.2627 66.2439 73.0244 66.3035 72.7515 66.3035C72.4709 66.3035 72.2172 66.2343 71.9904 66.0959C71.7636 65.9575 71.5848 65.7634 71.4541 65.5135C71.3234 65.2637 71.2581 64.9792 71.2581 64.6601ZM73.9335 64.6659C73.9335 64.4276 73.8855 64.22 73.7894 64.0432C73.6933 63.8664 73.5626 63.7318 73.3973 63.6396C73.2358 63.5435 73.0571 63.4954 72.861 63.4954C72.665 63.4954 72.4862 63.5415 72.3248 63.6338C72.1633 63.726 72.0346 63.8606 71.9385 64.0374C71.8424 64.2142 71.7943 64.4218 71.7943 64.6601C71.7943 64.9023 71.8424 65.1137 71.9385 65.2944C72.0346 65.4712 72.1633 65.6077 72.3248 65.7038C72.4862 65.7961 72.665 65.8422 72.861 65.8422C73.0571 65.8422 73.2358 65.7961 73.3973 65.7038C73.5626 65.6077 73.6933 65.4712 73.7894 65.2944C73.8855 65.1137 73.9335 64.9042 73.9335 64.6659ZM79.1505 63.0341C79.3965 63.0341 79.6156 63.086 79.8078 63.1898C80 63.2898 80.1519 63.4416 80.2634 63.6453C80.3748 63.8491 80.4306 64.097 80.4306 64.3891V66.2516H79.9116V64.4641C79.9116 64.1489 79.8328 63.9086 79.6752 63.7433C79.5215 63.5742 79.312 63.4896 79.0467 63.4896C78.7738 63.4896 78.5566 63.5781 78.3952 63.7549C78.2337 63.9279 78.153 64.1796 78.153 64.5102V66.2516H77.6341V64.4641C77.6341 64.1489 77.5552 63.9086 77.3976 63.7433C77.2439 63.5742 77.0344 63.4896 76.7691 63.4896C76.4962 63.4896 76.279 63.5781 76.1176 63.7549C75.9561 63.9279 75.8754 64.1796 75.8754 64.5102V66.2516H75.3507V63.0918H75.8754V63.5473C75.9792 63.382 76.1176 63.2552 76.2906 63.1667C76.4674 63.0783 76.6615 63.0341 76.8729 63.0341C77.1382 63.0341 77.3727 63.0937 77.5764 63.2129C77.7801 63.332 77.932 63.5069 78.0319 63.7376C78.1203 63.5146 78.2664 63.3416 78.4701 63.2186C78.6739 63.0956 78.9007 63.0341 79.1505 63.0341ZM84.1743 64.5506C84.1743 64.6505 84.1685 64.7562 84.157 64.8677H81.6315C81.6507 65.1791 81.7564 65.4232 81.9486 65.6C82.1447 65.773 82.3811 65.8595 82.6578 65.8595C82.8846 65.8595 83.073 65.8076 83.2229 65.7038C83.3767 65.5962 83.4843 65.4539 83.5458 65.2771H84.1109C84.0263 65.5808 83.8572 65.8287 83.6035 66.0209C83.3498 66.2093 83.0346 66.3035 82.6578 66.3035C82.358 66.3035 82.0889 66.2362 81.8506 66.1017C81.6161 65.9671 81.4316 65.7768 81.2971 65.5308C81.1625 65.281 81.0952 64.9927 81.0952 64.6659C81.0952 64.3392 81.1606 64.0528 81.2913 63.8068C81.422 63.5608 81.6046 63.3724 81.8391 63.2417C82.0774 63.1072 82.3503 63.0399 82.6578 63.0399C82.9577 63.0399 83.2229 63.1052 83.4536 63.2359C83.6842 63.3666 83.861 63.5473 83.984 63.7779C84.1109 64.0047 84.1743 64.2623 84.1743 64.5506ZM83.6323 64.441C83.6323 64.2411 83.5881 64.0701 83.4997 63.9279C83.4113 63.7818 83.2902 63.6722 83.1364 63.5992C82.9865 63.5223 82.8193 63.4839 82.6348 63.4839C82.3695 63.4839 82.1427 63.5684 81.9544 63.7376C81.7699 63.9067 81.6642 64.1412 81.6373 64.441H83.6323ZM85.5069 63.5242V65.3867C85.5069 65.5404 85.5396 65.65 85.605 65.7153C85.6703 65.7768 85.7837 65.8076 85.9452 65.8076H86.3315V66.2516H85.8587C85.5665 66.2516 85.3474 66.1843 85.2013 66.0498C85.0553 65.9152 84.9822 65.6942 84.9822 65.3867V63.5242H84.5728V63.0918H84.9822V62.2961H85.5069V63.0918H86.3315V63.5242H85.5069ZM87.5092 65.5251L86.8634 67.0761H86.5117L86.9326 65.5251H87.5092ZM7.93302 73.6659C7.93302 73.3392 7.99837 73.0547 8.12907 72.8125C8.25976 72.5665 8.44043 72.3762 8.67107 72.2417C8.90556 72.1072 9.17272 72.0399 9.47255 72.0399C9.8608 72.0399 10.1799 72.1341 10.4297 72.3224C10.6834 72.5108 10.8506 72.7722 10.9314 73.1066H10.3663C10.3125 72.9144 10.2068 72.7626 10.0492 72.6511C9.8954 72.5396 9.70319 72.4839 9.47255 72.4839C9.17272 72.4839 8.93055 72.5877 8.74603 72.7952C8.56152 72.999 8.46926 73.2892 8.46926 73.6659C8.46926 74.0465 8.56152 74.3405 8.74603 74.5481C8.93055 74.7557 9.17272 74.8595 9.47255 74.8595C9.70319 74.8595 9.8954 74.8057 10.0492 74.698C10.2029 74.5904 10.3086 74.4366 10.3663 74.2367H10.9314C10.8468 74.5596 10.6777 74.8191 10.4239 75.0152C10.1702 75.2074 9.85311 75.3035 9.47255 75.3035C9.17272 75.3035 8.90556 75.2362 8.67107 75.1017C8.44043 74.9671 8.25976 74.7768 8.12907 74.5308C7.99837 74.2848 7.93302 73.9965 7.93302 73.6659ZM13.0096 75.3035C12.7136 75.3035 12.4445 75.2362 12.2023 75.1017C11.964 74.9671 11.7756 74.7768 11.6372 74.5308C11.5027 74.281 11.4354 73.9927 11.4354 73.6659C11.4354 73.343 11.5046 73.0586 11.643 72.8125C11.7852 72.5627 11.9774 72.3724 12.2196 72.2417C12.4618 72.1072 12.7328 72.0399 13.0326 72.0399C13.3325 72.0399 13.6035 72.1072 13.8456 72.2417C14.0878 72.3724 14.2781 72.5608 14.4165 72.8068C14.5587 73.0528 14.6298 73.3392 14.6298 73.6659C14.6298 73.9927 14.5568 74.281 14.4107 74.5308C14.2685 74.7768 14.0744 74.9671 13.8283 75.1017C13.5823 75.2362 13.3094 75.3035 13.0096 75.3035ZM13.0096 74.8422C13.1979 74.8422 13.3747 74.798 13.54 74.7096C13.7053 74.6212 13.838 74.4885 13.9379 74.3117C14.0417 74.1349 14.0936 73.9196 14.0936 73.6659C14.0936 73.4122 14.0436 73.1969 13.9437 73.0201C13.8437 72.8433 13.713 72.7126 13.5516 72.628C13.3901 72.5396 13.2152 72.4954 13.0269 72.4954C12.8347 72.4954 12.6578 72.5396 12.4964 72.628C12.3388 72.7126 12.2119 72.8433 12.1158 73.0201C12.0197 73.1969 11.9717 73.4122 11.9717 73.6659C11.9717 73.9235 12.0178 74.1406 12.1101 74.3175C12.2062 74.4943 12.333 74.6269 12.4906 74.7153C12.6482 74.7999 12.8212 74.8422 13.0096 74.8422ZM16.8593 72.0341C17.2437 72.0341 17.555 72.1514 17.7934 72.3859C18.0317 72.6165 18.1508 72.9509 18.1508 73.3891V75.2516H17.6319V73.4641C17.6319 73.1489 17.5531 72.9086 17.3955 72.7433C17.2379 72.5742 17.0226 72.4896 16.7497 72.4896C16.4729 72.4896 16.2519 72.5761 16.0866 72.7491C15.9252 72.9221 15.8444 73.1739 15.8444 73.5045V75.2516H15.3197V72.0918H15.8444V72.5415C15.9482 72.3801 16.0885 72.2552 16.2654 72.1667C16.446 72.0783 16.644 72.0341 16.8593 72.0341ZM20.1266 75.3035C19.8844 75.3035 19.6672 75.2631 19.475 75.1824C19.2828 75.0978 19.131 74.9825 19.0195 74.8364C18.908 74.6865 18.8465 74.5154 18.835 74.3232H19.377C19.3924 74.4808 19.4654 74.6096 19.5961 74.7096C19.7306 74.8095 19.9055 74.8595 20.1208 74.8595C20.3207 74.8595 20.4783 74.8153 20.5936 74.7269C20.7089 74.6384 20.7666 74.527 20.7666 74.3924C20.7666 74.254 20.7051 74.1522 20.5821 74.0868C20.4591 74.0176 20.2688 73.9504 20.0112 73.885C19.7768 73.8235 19.5846 73.762 19.4346 73.7005C19.2886 73.6352 19.1617 73.541 19.0541 73.418C18.9503 73.2911 18.8984 73.1258 18.8984 72.9221C18.8984 72.7606 18.9465 72.6126 19.0426 72.4781C19.1387 72.3436 19.2751 72.2379 19.4519 72.161C19.6288 72.0803 19.8306 72.0399 20.0574 72.0399C20.4072 72.0399 20.6897 72.1283 20.905 72.3051C21.1202 72.482 21.2356 72.7241 21.2509 73.0316H20.7262C20.7147 72.8664 20.6474 72.7337 20.5244 72.6338C20.4053 72.5338 20.2438 72.4839 20.0401 72.4839C19.8517 72.4839 19.7018 72.5242 19.5903 72.605C19.4788 72.6857 19.4231 72.7914 19.4231 72.9221C19.4231 73.0259 19.4558 73.1124 19.5211 73.1816C19.5903 73.2469 19.6749 73.3007 19.7748 73.343C19.8786 73.3815 20.0209 73.4257 20.2015 73.4756C20.4283 73.5371 20.6128 73.5986 20.7551 73.6601C20.8973 73.7178 21.0184 73.8062 21.1183 73.9254C21.2221 74.0445 21.2759 74.2002 21.2798 74.3924C21.2798 74.5654 21.2317 74.7211 21.1356 74.8595C21.0395 74.9979 20.9031 75.1074 20.7262 75.1881C20.5533 75.265 20.3534 75.3035 20.1266 75.3035ZM24.9035 73.5506C24.9035 73.6505 24.8977 73.7562 24.8862 73.8677H22.3607C22.3799 74.1791 22.4856 74.4232 22.6778 74.6C22.8739 74.773 23.1103 74.8595 23.387 74.8595C23.6138 74.8595 23.8022 74.8076 23.9521 74.7038C24.1059 74.5962 24.2135 74.4539 24.275 74.2771H24.8401C24.7555 74.5808 24.5864 74.8287 24.3327 75.0209C24.079 75.2093 23.7638 75.3035 23.387 75.3035C23.0872 75.3035 22.8181 75.2362 22.5798 75.1017C22.3453 74.9671 22.1608 74.7768 22.0263 74.5308C21.8917 74.281 21.8244 73.9927 21.8244 73.6659C21.8244 73.3392 21.8898 73.0528 22.0205 72.8068C22.1512 72.5608 22.3338 72.3724 22.5683 72.2417C22.8066 72.1072 23.0795 72.0399 23.387 72.0399C23.6869 72.0399 23.9521 72.1052 24.1827 72.2359C24.4134 72.3666 24.5902 72.5473 24.7132 72.7779C24.8401 73.0047 24.9035 73.2623 24.9035 73.5506ZM24.3615 73.441C24.3615 73.2411 24.3173 73.0701 24.2289 72.9279C24.1405 72.7818 24.0194 72.6722 23.8656 72.5992C23.7157 72.5223 23.5485 72.4839 23.364 72.4839C23.0987 72.4839 22.8719 72.5684 22.6836 72.7376C22.4991 72.9067 22.3934 73.1412 22.3664 73.441H24.3615ZM25.4001 73.6659C25.4001 73.3392 25.4654 73.0547 25.5961 72.8125C25.7268 72.5665 25.9075 72.3762 26.1381 72.2417C26.3726 72.1072 26.6398 72.0399 26.9396 72.0399C27.3278 72.0399 27.6469 72.1341 27.8968 72.3224C28.1505 72.5108 28.3177 72.7722 28.3984 73.1066H27.8333C27.7795 72.9144 27.6738 72.7626 27.5162 72.6511C27.3624 72.5396 27.1702 72.4839 26.9396 72.4839C26.6398 72.4839 26.3976 72.5877 26.2131 72.7952C26.0286 72.999 25.9363 73.2892 25.9363 73.6659C25.9363 74.0465 26.0286 74.3405 26.2131 74.5481C26.3976 74.7557 26.6398 74.8595 26.9396 74.8595C27.1702 74.8595 27.3624 74.8057 27.5162 74.698C27.67 74.5904 27.7757 74.4366 27.8333 74.2367H28.3984C28.3138 74.5596 28.1447 74.8191 27.891 75.0152C27.6373 75.2074 27.3201 75.3035 26.9396 75.3035C26.6398 75.3035 26.3726 75.2362 26.1381 75.1017C25.9075 74.9671 25.7268 74.7768 25.5961 74.5308C25.4654 74.2848 25.4001 73.9965 25.4001 73.6659ZM29.7386 72.5242V74.3867C29.7386 74.5404 29.7712 74.65 29.8366 74.7153C29.9019 74.7768 30.0153 74.8076 30.1768 74.8076H30.5631V75.2516H30.0903C29.7981 75.2516 29.579 75.1843 29.433 75.0498C29.2869 74.9152 29.2138 74.6942 29.2138 74.3867V72.5242H28.8045V72.0918H29.2138V71.2961H29.7386V72.0918H30.5631V72.5242H29.7386ZM34.0819 73.5506C34.0819 73.6505 34.0761 73.7562 34.0646 73.8677H31.539C31.5583 74.1791 31.664 74.4232 31.8562 74.6C32.0522 74.773 32.2886 74.8595 32.5654 74.8595C32.7922 74.8595 32.9806 74.8076 33.1305 74.7038C33.2842 74.5962 33.3919 74.4539 33.4534 74.2771H34.0184C33.9339 74.5808 33.7647 74.8287 33.511 75.0209C33.2573 75.2093 32.9421 75.3035 32.5654 75.3035C32.2656 75.3035 31.9965 75.2362 31.7582 75.1017C31.5237 74.9671 31.3392 74.7768 31.2046 74.5308C31.0701 74.281 31.0028 73.9927 31.0028 73.6659C31.0028 73.3392 31.0681 73.0528 31.1988 72.8068C31.3295 72.5608 31.5121 72.3724 31.7466 72.2417C31.9849 72.1072 32.2579 72.0399 32.5654 72.0399C32.8652 72.0399 33.1305 72.1052 33.3611 72.2359C33.5918 72.3666 33.7686 72.5473 33.8916 72.7779C34.0184 73.0047 34.0819 73.2623 34.0819 73.5506ZM33.5399 73.441C33.5399 73.2411 33.4956 73.0701 33.4072 72.9279C33.3188 72.7818 33.1977 72.6722 33.044 72.5992C32.8941 72.5223 32.7268 72.4839 32.5423 72.4839C32.2771 72.4839 32.0503 72.5684 31.8619 72.7376C31.6774 72.9067 31.5717 73.1412 31.5448 73.441H33.5399ZM35.4145 72.5242V74.3867C35.4145 74.5404 35.4472 74.65 35.5125 74.7153C35.5779 74.7768 35.6913 74.8076 35.8527 74.8076H36.239V75.2516H35.7662C35.4741 75.2516 35.255 75.1843 35.1089 75.0498C34.9628 74.9152 34.8898 74.6942 34.8898 74.3867V72.5242H34.4804V72.0918H34.8898V71.2961H35.4145V72.0918H36.239V72.5242H35.4145ZM39.6771 72.0918V75.2516H39.1524V74.7845C39.0524 74.946 38.9121 75.0728 38.7315 75.1651C38.5546 75.2535 38.3586 75.2977 38.1433 75.2977C37.8973 75.2977 37.6763 75.2477 37.4802 75.1478C37.2842 75.044 37.1285 74.8902 37.0132 74.6865C36.9017 74.4828 36.846 74.2348 36.846 73.9427V72.0918H37.3649V73.8735C37.3649 74.1849 37.4437 74.4251 37.6013 74.5942C37.7589 74.7595 37.9742 74.8422 38.2471 74.8422C38.5277 74.8422 38.7488 74.7557 38.9102 74.5827C39.0716 74.4097 39.1524 74.1579 39.1524 73.8274V72.0918H39.6771ZM41.0877 72.605C41.18 72.4243 41.3107 72.284 41.4798 72.184C41.6528 72.0841 41.8623 72.0341 42.1083 72.0341V72.5761H41.9699C41.3818 72.5761 41.0877 72.8952 41.0877 73.5333V75.2516H40.563V72.0918H41.0877V72.605ZM44.0552 73.6601C44.0552 73.3372 44.1206 73.0547 44.2513 72.8125C44.382 72.5665 44.5607 72.3762 44.7875 72.2417C45.0181 72.1072 45.2738 72.0399 45.5544 72.0399C45.8312 72.0399 46.0714 72.0995 46.2751 72.2186C46.4789 72.3378 46.6307 72.4877 46.7307 72.6684V72.0918H47.2611V75.2516H46.7307V74.6634C46.6269 74.8479 46.4712 75.0017 46.2636 75.1247C46.0599 75.2439 45.8215 75.3035 45.5486 75.3035C45.268 75.3035 45.0143 75.2343 44.7875 75.0959C44.5607 74.9575 44.382 74.7634 44.2513 74.5135C44.1206 74.2637 44.0552 73.9792 44.0552 73.6601ZM46.7307 73.6659C46.7307 73.4276 46.6826 73.22 46.5865 73.0432C46.4904 72.8664 46.3597 72.7318 46.1944 72.6396C46.033 72.5435 45.8542 72.4954 45.6582 72.4954C45.4621 72.4954 45.2834 72.5415 45.1219 72.6338C44.9605 72.726 44.8317 72.8606 44.7356 73.0374C44.6395 73.2142 44.5915 73.4218 44.5915 73.6601C44.5915 73.9023 44.6395 74.1137 44.7356 74.2944C44.8317 74.4712 44.9605 74.6077 45.1219 74.7038C45.2834 74.7961 45.4621 74.8422 45.6582 74.8422C45.8542 74.8422 46.033 74.7961 46.1944 74.7038C46.3597 74.6077 46.4904 74.4712 46.5865 74.2944C46.6826 74.1137 46.7307 73.9042 46.7307 73.6659ZM47.9518 73.6601C47.9518 73.3372 48.0171 73.0547 48.1478 72.8125C48.2785 72.5665 48.4573 72.3762 48.6841 72.2417C48.9147 72.1072 49.1723 72.0399 49.4567 72.0399C49.7028 72.0399 49.9315 72.0975 50.1429 72.2129C50.3543 72.3243 50.5158 72.4723 50.6272 72.6569V70.9847H51.1577V75.2516H50.6272V74.6577C50.5234 74.846 50.3697 75.0017 50.166 75.1247C49.9622 75.2439 49.7239 75.3035 49.451 75.3035C49.1704 75.3035 48.9147 75.2343 48.6841 75.0959C48.4573 74.9575 48.2785 74.7634 48.1478 74.5135C48.0171 74.2637 47.9518 73.9792 47.9518 73.6601ZM50.6272 73.6659C50.6272 73.4276 50.5792 73.22 50.4831 73.0432C50.387 72.8664 50.2563 72.7318 50.091 72.6396C49.9295 72.5435 49.7508 72.4954 49.5548 72.4954C49.3587 72.4954 49.18 72.5415 49.0185 72.6338C48.8571 72.726 48.7283 72.8606 48.6322 73.0374C48.5361 73.2142 48.488 73.4218 48.488 73.6601C48.488 73.9023 48.5361 74.1137 48.6322 74.2944C48.7283 74.4712 48.8571 74.6077 49.0185 74.7038C49.18 74.7961 49.3587 74.8422 49.5548 74.8422C49.7508 74.8422 49.9295 74.7961 50.091 74.7038C50.2563 74.6077 50.387 74.4712 50.4831 74.2944C50.5792 74.1137 50.6272 73.9042 50.6272 73.6659ZM52.3154 71.5786C52.2155 71.5786 52.1309 71.544 52.0617 71.4748C51.9925 71.4056 51.9579 71.3211 51.9579 71.2211C51.9579 71.1212 51.9925 71.0366 52.0617 70.9674C52.1309 70.8982 52.2155 70.8636 52.3154 70.8636C52.4115 70.8636 52.4923 70.8982 52.5576 70.9674C52.6268 71.0366 52.6614 71.1212 52.6614 71.2211C52.6614 71.3211 52.6268 71.4056 52.5576 71.4748C52.4923 71.544 52.4115 71.5786 52.3154 71.5786ZM52.5691 72.0918V75.2516H52.0444V72.0918H52.5691ZM53.9881 72.6742C54.0919 72.4935 54.2457 72.3436 54.4494 72.2244C54.657 72.1014 54.8972 72.0399 55.1702 72.0399C55.4508 72.0399 55.7045 72.1072 55.9313 72.2417C56.1619 72.3762 56.3426 72.5665 56.4733 72.8125C56.604 73.0547 56.6693 73.3372 56.6693 73.6601C56.6693 73.9792 56.604 74.2637 56.4733 74.5135C56.3426 74.7634 56.1619 74.9575 55.9313 75.0959C55.7045 75.2343 55.4508 75.3035 55.1702 75.3035C54.9011 75.3035 54.6627 75.2439 54.4552 75.1247C54.2514 75.0017 54.0957 74.8499 53.9881 74.6692V76.7507H53.4634V72.0918H53.9881V72.6742ZM56.1331 73.6601C56.1331 73.4218 56.085 73.2142 55.9889 73.0374C55.8928 72.8606 55.7621 72.726 55.5968 72.6338C55.4354 72.5415 55.2566 72.4954 55.0606 72.4954C54.8684 72.4954 54.6896 72.5435 54.5244 72.6396C54.3629 72.7318 54.2322 72.8683 54.1323 73.0489C54.0362 73.2258 53.9881 73.4314 53.9881 73.6659C53.9881 73.9042 54.0362 74.1137 54.1323 74.2944C54.2322 74.4712 54.3629 74.6077 54.5244 74.7038C54.6896 74.7961 54.8684 74.8422 55.0606 74.8422C55.2566 74.8422 55.4354 74.7961 55.5968 74.7038C55.7621 74.6077 55.8928 74.4712 55.9889 74.2944C56.085 74.1137 56.1331 73.9023 56.1331 73.6601ZM57.631 71.5786C57.531 71.5786 57.4465 71.544 57.3773 71.4748C57.3081 71.4056 57.2735 71.3211 57.2735 71.2211C57.2735 71.1212 57.3081 71.0366 57.3773 70.9674C57.4465 70.8982 57.531 70.8636 57.631 70.8636C57.7271 70.8636 57.8078 70.8982 57.8732 70.9674C57.9424 71.0366 57.977 71.1212 57.977 71.2211C57.977 71.3211 57.9424 71.4056 57.8732 71.4748C57.8078 71.544 57.7271 71.5786 57.631 71.5786ZM57.8847 72.0918V75.2516H57.36V72.0918H57.8847ZM59.8976 75.3035C59.6554 75.3035 59.4382 75.2631 59.246 75.1824C59.0538 75.0978 58.902 74.9825 58.7905 74.8364C58.679 74.6865 58.6175 74.5154 58.606 74.3232H59.148C59.1634 74.4808 59.2364 74.6096 59.3671 74.7096C59.5016 74.8095 59.6766 74.8595 59.8918 74.8595C60.0917 74.8595 60.2493 74.8153 60.3646 74.7269C60.48 74.6384 60.5376 74.527 60.5376 74.3924C60.5376 74.254 60.4761 74.1522 60.3531 74.0868C60.2301 74.0176 60.0398 73.9504 59.7823 73.885C59.5478 73.8235 59.3556 73.762 59.2057 73.7005C59.0596 73.6352 58.9327 73.541 58.8251 73.418C58.7213 73.2911 58.6694 73.1258 58.6694 72.9221C58.6694 72.7606 58.7175 72.6126 58.8136 72.4781C58.9097 72.3436 59.0461 72.2379 59.223 72.161C59.3998 72.0803 59.6016 72.0399 59.8284 72.0399C60.1782 72.0399 60.4607 72.1283 60.676 72.3051C60.8913 72.482 61.0066 72.7241 61.022 73.0316H60.4973C60.4857 72.8664 60.4184 72.7337 60.2954 72.6338C60.1763 72.5338 60.0148 72.4839 59.8111 72.4839C59.6227 72.4839 59.4728 72.5242 59.3613 72.605C59.2499 72.6857 59.1941 72.7914 59.1941 72.9221C59.1941 73.0259 59.2268 73.1124 59.2921 73.1816C59.3613 73.2469 59.4459 73.3007 59.5459 73.343C59.6496 73.3815 59.7919 73.4257 59.9725 73.4756C60.1993 73.5371 60.3839 73.5986 60.5261 73.6601C60.6683 73.7178 60.7894 73.8062 60.8893 73.9254C60.9931 74.0445 61.0469 74.2002 61.0508 74.3924C61.0508 74.5654 61.0027 74.7211 60.9066 74.8595C60.8105 74.9979 60.6741 75.1074 60.4973 75.1881C60.3243 75.265 60.1244 75.3035 59.8976 75.3035ZM61.5955 73.6659C61.5955 73.3392 61.6608 73.0547 61.7915 72.8125C61.9222 72.5665 62.1029 72.3762 62.3335 72.2417C62.568 72.1072 62.8352 72.0399 63.135 72.0399C63.5232 72.0399 63.8423 72.1341 64.0921 72.3224C64.3459 72.5108 64.5131 72.7722 64.5938 73.1066H64.0287C63.9749 72.9144 63.8692 72.7626 63.7116 72.6511C63.5578 72.5396 63.3656 72.4839 63.135 72.4839C62.8352 72.4839 62.593 72.5877 62.4085 72.7952C62.224 72.999 62.1317 73.2892 62.1317 73.6659C62.1317 74.0465 62.224 74.3405 62.4085 74.5481C62.593 74.7557 62.8352 74.8595 63.135 74.8595C63.3656 74.8595 63.5578 74.8057 63.7116 74.698C63.8654 74.5904 63.9711 74.4366 64.0287 74.2367H64.5938C64.5092 74.5596 64.3401 74.8191 64.0864 75.0152C63.8327 75.2074 63.5155 75.3035 63.135 75.3035C62.8352 75.3035 62.568 75.2362 62.3335 75.1017C62.1029 74.9671 61.9222 74.7768 61.7915 74.5308C61.6608 74.2848 61.5955 73.9965 61.5955 73.6659ZM65.5649 71.5786C65.465 71.5786 65.3804 71.544 65.3112 71.4748C65.242 71.4056 65.2074 71.3211 65.2074 71.2211C65.2074 71.1212 65.242 71.0366 65.3112 70.9674C65.3804 70.8982 65.465 70.8636 65.5649 70.8636C65.661 70.8636 65.7417 70.8982 65.8071 70.9674C65.8763 71.0366 65.9109 71.1212 65.9109 71.2211C65.9109 71.3211 65.8763 71.4056 65.8071 71.4748C65.7417 71.544 65.661 71.5786 65.5649 71.5786ZM65.8186 72.0918V75.2516H65.2939V72.0918H65.8186ZM68.2524 72.0341C68.6368 72.0341 68.9482 72.1514 69.1865 72.3859C69.4249 72.6165 69.544 72.9509 69.544 73.3891V75.2516H69.0251V73.4641C69.0251 73.1489 68.9463 72.9086 68.7887 72.7433C68.6311 72.5742 68.4158 72.4896 68.1429 72.4896C67.8661 72.4896 67.6451 72.5761 67.4798 72.7491C67.3183 72.9221 67.2376 73.1739 67.2376 73.5045V75.2516H66.7129V72.0918H67.2376V72.5415C67.3414 72.3801 67.4817 72.2552 67.6585 72.1667C67.8392 72.0783 68.0372 72.0341 68.2524 72.0341ZM71.7043 72.0399C71.9772 72.0399 72.2155 72.0995 72.4193 72.2186C72.6268 72.3378 72.7806 72.4877 72.8805 72.6684V72.0918H73.411V75.3208C73.411 75.6091 73.3495 75.8647 73.2265 76.0876C73.1035 76.3144 72.9267 76.4913 72.696 76.6181C72.4692 76.745 72.204 76.8084 71.9003 76.8084C71.4852 76.8084 71.1392 76.7104 70.8624 76.5143C70.5857 76.3183 70.4223 76.0511 70.3723 75.7129H70.8913C70.9489 75.9051 71.0681 76.0588 71.2487 76.1741C71.4294 76.2933 71.6466 76.3529 71.9003 76.3529C72.1886 76.3529 72.4231 76.2626 72.6038 76.0819C72.7883 75.9012 72.8805 75.6475 72.8805 75.3208V74.6577C72.7767 74.8422 72.623 74.9959 72.4193 75.119C72.2155 75.242 71.9772 75.3035 71.7043 75.3035C71.4236 75.3035 71.168 75.2343 70.9374 75.0959C70.7106 74.9575 70.5318 74.7634 70.4011 74.5135C70.2704 74.2637 70.2051 73.9792 70.2051 73.6601C70.2051 73.3372 70.2704 73.0547 70.4011 72.8125C70.5318 72.5665 70.7106 72.3762 70.9374 72.2417C71.168 72.1072 71.4236 72.0399 71.7043 72.0399ZM72.8805 73.6659C72.8805 73.4276 72.8325 73.22 72.7364 73.0432C72.6403 72.8664 72.5096 72.7318 72.3443 72.6396C72.1828 72.5435 72.0041 72.4954 71.8081 72.4954C71.612 72.4954 71.4333 72.5415 71.2718 72.6338C71.1104 72.726 70.9816 72.8606 70.8855 73.0374C70.7894 73.2142 70.7413 73.4218 70.7413 73.6601C70.7413 73.9023 70.7894 74.1137 70.8855 74.2944C70.9816 74.4712 71.1104 74.6077 71.2718 74.7038C71.4333 74.7961 71.612 74.8422 71.8081 74.8422C72.0041 74.8422 72.1828 74.7961 72.3443 74.7038C72.5096 74.6077 72.6403 74.4712 72.7364 74.2944C72.8325 74.1137 72.8805 73.9042 72.8805 73.6659ZM78.718 73.5506C78.718 73.6505 78.7122 73.7562 78.7007 73.8677H76.1751C76.1944 74.1791 76.3001 74.4232 76.4923 74.6C76.6883 74.773 76.9247 74.8595 77.2015 74.8595C77.4283 74.8595 77.6167 74.8076 77.7666 74.7038C77.9203 74.5962 78.028 74.4539 78.0895 74.2771H78.6545C78.57 74.5808 78.4008 74.8287 78.1471 75.0209C77.8934 75.2093 77.5782 75.3035 77.2015 75.3035C76.9017 75.3035 76.6326 75.2362 76.3943 75.1017C76.1598 74.9671 75.9753 74.7768 75.8407 74.5308C75.7062 74.281 75.6389 73.9927 75.6389 73.6659C75.6389 73.3392 75.7043 73.0528 75.835 72.8068C75.9657 72.5608 76.1482 72.3724 76.3827 72.2417C76.6211 72.1072 76.894 72.0399 77.2015 72.0399C77.5013 72.0399 77.7666 72.1052 77.9972 72.2359C78.2279 72.3666 78.4047 72.5473 78.5277 72.7779C78.6545 73.0047 78.718 73.2623 78.718 73.5506ZM78.176 73.441C78.176 73.2411 78.1318 73.0701 78.0433 72.9279C77.9549 72.7818 77.8338 72.6722 77.6801 72.5992C77.5302 72.5223 77.363 72.4839 77.1784 72.4839C76.9132 72.4839 76.6864 72.5684 76.498 72.7376C76.3135 72.9067 76.2078 73.1412 76.1809 73.441H78.176ZM79.9353 70.9847V75.2516H79.4106V70.9847H79.9353ZM81.1006 71.5786C81.0006 71.5786 80.916 71.544 80.8469 71.4748C80.7777 71.4056 80.7431 71.3211 80.7431 71.2211C80.7431 71.1212 80.7777 71.0366 80.8469 70.9674C80.916 70.8982 81.0006 70.8636 81.1006 70.8636C81.1967 70.8636 81.2774 70.8982 81.3427 70.9674C81.4119 71.0366 81.4465 71.1212 81.4465 71.2211C81.4465 71.3211 81.4119 71.4056 81.3427 71.4748C81.2774 71.544 81.1967 71.5786 81.1006 71.5786ZM81.3543 72.0918V75.2516H80.8296V72.0918H81.3543ZM82.8886 72.5242V74.3867C82.8886 74.5404 82.9212 74.65 82.9866 74.7153C83.0519 74.7768 83.1653 74.8076 83.3268 74.8076H83.7131V75.2516H83.2403C82.9482 75.2516 82.729 75.1843 82.583 75.0498C82.4369 74.9152 82.3639 74.6942 82.3639 74.3867V72.5242H81.9545V72.0918H82.3639V71.2961H82.8886V72.0918H83.7131V72.5242H82.8886ZM84.5161 75.2862C84.4161 75.2862 84.3316 75.2516 84.2624 75.1824C84.1932 75.1132 84.1586 75.0286 84.1586 74.9287C84.1586 74.8287 84.1932 74.7442 84.2624 74.675C84.3316 74.6058 84.4161 74.5712 84.5161 74.5712C84.6122 74.5712 84.6929 74.6058 84.7583 74.675C84.8275 74.7442 84.862 74.8287 84.862 74.9287C84.862 75.0286 84.8275 75.1132 84.7583 75.1824C84.6929 75.2516 84.6122 75.2862 84.5161 75.2862ZM8.65378 80.6593V82.0028H10.1183V82.4353H8.65378V83.8191H10.2913V84.2516H8.12907V80.2269H10.2913V80.6593H8.65378ZM11.7253 81.5242V83.3867C11.7253 83.5404 11.758 83.65 11.8233 83.7153C11.8887 83.7768 12.0021 83.8076 12.1635 83.8076H12.5499V84.2516H12.077C11.7849 84.2516 11.5658 84.1843 11.4197 84.0498C11.2736 83.9152 11.2006 83.6942 11.2006 83.3867V81.5242H10.7912V81.0918H11.2006V80.2961H11.7253V81.0918H12.5499V81.5242H11.7253ZM13.4566 80.5786C13.3567 80.5786 13.2721 80.544 13.2029 80.4748C13.1337 80.4056 13.0991 80.3211 13.0991 80.2211C13.0991 80.1212 13.1337 80.0366 13.2029 79.9674C13.2721 79.8982 13.3567 79.8636 13.4566 79.8636C13.5527 79.8636 13.6334 79.8982 13.6988 79.9674C13.768 80.0366 13.8026 80.1212 13.8026 80.2211C13.8026 80.3211 13.768 80.4056 13.6988 80.4748C13.6334 80.544 13.5527 80.5786 13.4566 80.5786ZM13.7103 81.0918V84.2516H13.1856V81.0918H13.7103ZM14.4086 82.6601C14.4086 82.3372 14.4739 82.0547 14.6046 81.8125C14.7353 81.5665 14.914 81.3762 15.1408 81.2417C15.3715 81.1072 15.6271 81.0399 15.9077 81.0399C16.1845 81.0399 16.4247 81.0995 16.6285 81.2186C16.8322 81.3378 16.984 81.4877 17.084 81.6684V81.0918H17.6145V84.2516H17.084V83.6634C16.9802 83.8479 16.8245 84.0017 16.6169 84.1247C16.4132 84.2439 16.1749 84.3035 15.902 84.3035C15.6213 84.3035 15.3676 84.2343 15.1408 84.0959C14.914 83.9575 14.7353 83.7634 14.6046 83.5135C14.4739 83.2637 14.4086 82.9792 14.4086 82.6601ZM17.084 82.6659C17.084 82.4276 17.0359 82.22 16.9398 82.0432C16.8437 81.8664 16.713 81.7318 16.5478 81.6396C16.3863 81.5435 16.2076 81.4954 16.0115 81.4954C15.8155 81.4954 15.6367 81.5415 15.4753 81.6338C15.3138 81.726 15.185 81.8606 15.0889 82.0374C14.9928 82.2142 14.9448 82.4218 14.9448 82.6601C14.9448 82.9023 14.9928 83.1137 15.0889 83.2944C15.185 83.4712 15.3138 83.6077 15.4753 83.7038C15.6367 83.7961 15.8155 83.8422 16.0115 83.8422C16.2076 83.8422 16.3863 83.7961 16.5478 83.7038C16.713 83.6077 16.8437 83.4712 16.9398 83.2944C17.0359 83.1137 17.084 82.9042 17.084 82.6659ZM22.301 81.0341C22.547 81.0341 22.7661 81.086 22.9583 81.1898C23.1505 81.2898 23.3024 81.4416 23.4138 81.6453C23.5253 81.8491 23.5811 82.097 23.5811 82.3891V84.2516H23.0621V82.4641C23.0621 82.1489 22.9833 81.9086 22.8257 81.7433C22.6719 81.5742 22.4624 81.4896 22.1972 81.4896C21.9243 81.4896 21.7071 81.5781 21.5456 81.7549C21.3842 81.9279 21.3035 82.1796 21.3035 82.5102V84.2516H20.7845V82.4641C20.7845 82.1489 20.7057 81.9086 20.5481 81.7433C20.3944 81.5742 20.1849 81.4896 19.9196 81.4896C19.6467 81.4896 19.4295 81.5781 19.2681 81.7549C19.1066 81.9279 19.0259 82.1796 19.0259 82.5102V84.2516H18.5012V81.0918H19.0259V81.5473C19.1297 81.382 19.2681 81.2552 19.441 81.1667C19.6179 81.0783 19.812 81.0341 20.0234 81.0341C20.2886 81.0341 20.5231 81.0937 20.7269 81.2129C20.9306 81.332 21.0824 81.5069 21.1824 81.7376C21.2708 81.5146 21.4169 81.3416 21.6206 81.2186C21.8243 81.0956 22.0511 81.0341 22.301 81.0341ZM25.783 82.6601C25.783 82.3372 25.8483 82.0547 25.979 81.8125C26.1097 81.5665 26.2884 81.3762 26.5152 81.2417C26.7459 81.1072 27.0034 81.0399 27.2879 81.0399C27.5339 81.0399 27.7626 81.0975 27.9741 81.2129C28.1855 81.3243 28.3469 81.4723 28.4584 81.6569V79.9847H28.9889V84.2516H28.4584V83.6577C28.3546 83.846 28.2009 84.0017 27.9971 84.1247C27.7934 84.2439 27.5551 84.3035 27.2821 84.3035C27.0015 84.3035 26.7459 84.2343 26.5152 84.0959C26.2884 83.9575 26.1097 83.7634 25.979 83.5135C25.8483 83.2637 25.783 82.9792 25.783 82.6601ZM28.4584 82.6659C28.4584 82.4276 28.4104 82.22 28.3143 82.0432C28.2182 81.8664 28.0875 81.7318 27.9222 81.6396C27.7607 81.5435 27.582 81.4954 27.3859 81.4954C27.1899 81.4954 27.0111 81.5415 26.8497 81.6338C26.6882 81.726 26.5595 81.8606 26.4634 82.0374C26.3673 82.2142 26.3192 82.4218 26.3192 82.6601C26.3192 82.9023 26.3673 83.1137 26.4634 83.2944C26.5595 83.4712 26.6882 83.6077 26.8497 83.7038C27.0111 83.7961 27.1899 83.8422 27.3859 83.8422C27.582 83.8422 27.7607 83.7961 27.9222 83.7038C28.0875 83.6077 28.2182 83.4712 28.3143 83.2944C28.4104 83.1137 28.4584 82.9042 28.4584 82.6659ZM30.1466 80.5786C30.0466 80.5786 29.9621 80.544 29.8929 80.4748C29.8237 80.4056 29.7891 80.3211 29.7891 80.2211C29.7891 80.1212 29.8237 80.0366 29.8929 79.9674C29.9621 79.8982 30.0466 79.8636 30.1466 79.8636C30.2427 79.8636 30.3234 79.8982 30.3888 79.9674C30.458 80.0366 30.4926 80.1212 30.4926 80.2211C30.4926 80.3211 30.458 80.4056 30.3888 80.4748C30.3234 80.544 30.2427 80.5786 30.1466 80.5786ZM30.4003 81.0918V84.2516H29.8756V81.0918H30.4003ZM32.5977 81.0399C32.8706 81.0399 33.109 81.0995 33.3127 81.2186C33.5203 81.3378 33.674 81.4877 33.774 81.6684V81.0918H34.3044V84.3208C34.3044 84.6091 34.2429 84.8647 34.1199 85.0876C33.9969 85.3144 33.8201 85.4913 33.5895 85.6181C33.3627 85.745 33.0974 85.8084 32.7937 85.8084C32.3786 85.8084 32.0326 85.7104 31.7559 85.5143C31.4791 85.3183 31.3157 85.0511 31.2657 84.7129H31.7847C31.8423 84.9051 31.9615 85.0588 32.1422 85.1741C32.3228 85.2933 32.54 85.3529 32.7937 85.3529C33.082 85.3529 33.3165 85.2626 33.4972 85.0819C33.6817 84.9012 33.774 84.6475 33.774 84.3208V83.6577C33.6702 83.8422 33.5164 83.9959 33.3127 84.119C33.109 84.242 32.8706 84.3035 32.5977 84.3035C32.3171 84.3035 32.0615 84.2343 31.8308 84.0959C31.604 83.9575 31.4253 83.7634 31.2946 83.5135C31.1639 83.2637 31.0985 82.9792 31.0985 82.6601C31.0985 82.3372 31.1639 82.0547 31.2946 81.8125C31.4253 81.5665 31.604 81.3762 31.8308 81.2417C32.0615 81.1072 32.3171 81.0399 32.5977 81.0399ZM33.774 82.6659C33.774 82.4276 33.7259 82.22 33.6298 82.0432C33.5337 81.8664 33.403 81.7318 33.2377 81.6396C33.0763 81.5435 32.8975 81.4954 32.7015 81.4954C32.5054 81.4954 32.3267 81.5415 32.1652 81.6338C32.0038 81.726 31.875 81.8606 31.7789 82.0374C31.6828 82.2142 31.6348 82.4218 31.6348 82.6601C31.6348 82.9023 31.6828 83.1137 31.7789 83.2944C31.875 83.4712 32.0038 83.6077 32.1652 83.7038C32.3267 83.7961 32.5054 83.8422 32.7015 83.8422C32.8975 83.8422 33.0763 83.7961 33.2377 83.7038C33.403 83.6077 33.5337 83.4712 33.6298 83.2944C33.7259 83.1137 33.774 82.9042 33.774 82.6659ZM36.7307 81.0341C37.1151 81.0341 37.4265 81.1514 37.6648 81.3859C37.9031 81.6165 38.0223 81.9509 38.0223 82.3891V84.2516H37.5033V82.4641C37.5033 82.1489 37.4245 81.9086 37.2669 81.7433C37.1093 81.5742 36.8941 81.4896 36.6211 81.4896C36.3444 81.4896 36.1233 81.5761 35.958 81.7491C35.7966 81.9221 35.7159 82.1739 35.7159 82.5045V84.2516H35.1912V81.0918H35.7159V81.5415C35.8196 81.3801 35.96 81.2552 36.1368 81.1667C36.3174 81.0783 36.5154 81.0341 36.7307 81.0341ZM39.1504 80.5786C39.0504 80.5786 38.9659 80.544 38.8967 80.4748C38.8275 80.4056 38.7929 80.3211 38.7929 80.2211C38.7929 80.1212 38.8275 80.0366 38.8967 79.9674C38.9659 79.8982 39.0504 79.8636 39.1504 79.8636C39.2465 79.8636 39.3272 79.8982 39.3926 79.9674C39.4618 80.0366 39.4964 80.1212 39.4964 80.2211C39.4964 80.3211 39.4618 80.4056 39.3926 80.4748C39.3272 80.544 39.2465 80.5786 39.1504 80.5786ZM39.4041 81.0918V84.2516H38.8794V81.0918H39.4041ZM41.417 84.3035C41.1748 84.3035 40.9576 84.2631 40.7654 84.1824C40.5732 84.0978 40.4214 83.9825 40.3099 83.8364C40.1984 83.6865 40.1369 83.5154 40.1254 83.3232H40.6674C40.6828 83.4808 40.7558 83.6096 40.8865 83.7096C41.021 83.8095 41.196 83.8595 41.4112 83.8595C41.6111 83.8595 41.7687 83.8153 41.884 83.7269C41.9994 83.6384 42.057 83.527 42.057 83.3924C42.057 83.254 41.9955 83.1522 41.8725 83.0868C41.7495 83.0176 41.5592 82.9504 41.3017 82.885C41.0672 82.8235 40.875 82.762 40.7251 82.7005C40.579 82.6352 40.4521 82.541 40.3445 82.418C40.2407 82.2911 40.1888 82.1258 40.1888 81.9221C40.1888 81.7606 40.2369 81.6126 40.333 81.4781C40.4291 81.3436 40.5655 81.2379 40.7424 81.161C40.9192 81.0803 41.121 81.0399 41.3478 81.0399C41.6976 81.0399 41.9801 81.1283 42.1954 81.3051C42.4107 81.482 42.526 81.7241 42.5414 82.0316H42.0166C42.0051 81.8664 41.9378 81.7337 41.8148 81.6338C41.6957 81.5338 41.5342 81.4839 41.3305 81.4839C41.1421 81.4839 40.9922 81.5242 40.8807 81.605C40.7693 81.6857 40.7135 81.7914 40.7135 81.9221C40.7135 82.0259 40.7462 82.1124 40.8115 82.1816C40.8807 82.2469 40.9653 82.3007 41.0653 82.343C41.169 82.3815 41.3113 82.4257 41.4919 82.4756C41.7187 82.5371 41.9033 82.5986 42.0455 82.6601C42.1877 82.7178 42.3088 82.8062 42.4087 82.9254C42.5125 83.0445 42.5663 83.2002 42.5702 83.3924C42.5702 83.5654 42.5221 83.7211 42.426 83.8595C42.3299 83.9979 42.1935 84.1074 42.0166 84.1881C41.8437 84.265 41.6438 84.3035 41.417 84.3035ZM44.4295 84.3035C44.1873 84.3035 43.9702 84.2631 43.778 84.1824C43.5857 84.0978 43.4339 83.9825 43.3224 83.8364C43.211 83.6865 43.1495 83.5154 43.1379 83.3232H43.6799C43.6953 83.4808 43.7683 83.6096 43.899 83.7096C44.0336 83.8095 44.2085 83.8595 44.4237 83.8595C44.6236 83.8595 44.7812 83.8153 44.8966 83.7269C45.0119 83.6384 45.0695 83.527 45.0695 83.3924C45.0695 83.254 45.008 83.1522 44.885 83.0868C44.762 83.0176 44.5717 82.9504 44.3142 82.885C44.0797 82.8235 43.8875 82.762 43.7376 82.7005C43.5915 82.6352 43.4647 82.541 43.357 82.418C43.2532 82.2911 43.2013 82.1258 43.2013 81.9221C43.2013 81.7606 43.2494 81.6126 43.3455 81.4781C43.4416 81.3436 43.5781 81.2379 43.7549 81.161C43.9317 81.0803 44.1335 81.0399 44.3603 81.0399C44.7101 81.0399 44.9927 81.1283 45.2079 81.3051C45.4232 81.482 45.5385 81.7241 45.5539 82.0316H45.0292C45.0176 81.8664 44.9504 81.7337 44.8274 81.6338C44.7082 81.5338 44.5468 81.4839 44.343 81.4839C44.1547 81.4839 44.0047 81.5242 43.8933 81.605C43.7818 81.6857 43.7261 81.7914 43.7261 81.9221C43.7261 82.0259 43.7587 82.1124 43.8241 82.1816C43.8933 82.2469 43.9778 82.3007 44.0778 82.343C44.1816 82.3815 44.3238 82.4257 44.5045 82.4756C44.7313 82.5371 44.9158 82.5986 45.058 82.6601C45.2002 82.7178 45.3213 82.8062 45.4213 82.9254C45.5251 83.0445 45.5789 83.2002 45.5827 83.3924C45.5827 83.5654 45.5347 83.7211 45.4386 83.8595C45.3425 83.9979 45.206 84.1074 45.0292 84.1881C44.8562 84.265 44.6563 84.3035 44.4295 84.3035ZM46.5944 80.5786C46.4945 80.5786 46.4099 80.544 46.3407 80.4748C46.2715 80.4056 46.2369 80.3211 46.2369 80.2211C46.2369 80.1212 46.2715 80.0366 46.3407 79.9674C46.4099 79.8982 46.4945 79.8636 46.5944 79.8636C46.6905 79.8636 46.7713 79.8982 46.8366 79.9674C46.9058 80.0366 46.9404 80.1212 46.9404 80.2211C46.9404 80.3211 46.9058 80.4056 46.8366 80.4748C46.7713 80.544 46.6905 80.5786 46.5944 80.5786ZM46.8481 81.0918V84.2516H46.3234V81.0918H46.8481ZM51.5422 81.0341C51.7883 81.0341 52.0074 81.086 52.1996 81.1898C52.3918 81.2898 52.5436 81.4416 52.6551 81.6453C52.7666 81.8491 52.8223 82.097 52.8223 82.3891V84.2516H52.3034V82.4641C52.3034 82.1489 52.2245 81.9086 52.0669 81.7433C51.9132 81.5742 51.7037 81.4896 51.4384 81.4896C51.1655 81.4896 50.9483 81.5781 50.7869 81.7549C50.6254 81.9279 50.5447 82.1796 50.5447 82.5102V84.2516H50.0258V82.4641C50.0258 82.1489 49.947 81.9086 49.7894 81.7433C49.6356 81.5742 49.4261 81.4896 49.1609 81.4896C48.8879 81.4896 48.6707 81.5781 48.5093 81.7549C48.3479 81.9279 48.2671 82.1796 48.2671 82.5102V84.2516H47.7424V81.0918H48.2671V81.5473C48.3709 81.382 48.5093 81.2552 48.6823 81.1667C48.8591 81.0783 49.0532 81.0341 49.2647 81.0341C49.5299 81.0341 49.7644 81.0937 49.9681 81.2129C50.1718 81.332 50.3237 81.5069 50.4236 81.7376C50.512 81.5146 50.6581 81.3416 50.8618 81.2186C51.0656 81.0956 51.2924 81.0341 51.5422 81.0341ZM54.225 83.5251L53.5792 85.0761H53.2275L53.6484 83.5251H54.225ZM57.4819 84.3035C57.2398 84.3035 57.0226 84.2631 56.8304 84.1824C56.6382 84.0978 56.4863 83.9825 56.3748 83.8364C56.2634 83.6865 56.2019 83.5154 56.1903 83.3232H56.7323C56.7477 83.4808 56.8208 83.6096 56.9515 83.7096C57.086 83.8095 57.2609 83.8595 57.4762 83.8595C57.676 83.8595 57.8337 83.8153 57.949 83.7269C58.0643 83.6384 58.122 83.527 58.122 83.3924C58.122 83.254 58.0605 83.1522 57.9374 83.0868C57.8144 83.0176 57.6242 82.9504 57.3666 82.885C57.1321 82.8235 56.9399 82.762 56.79 82.7005C56.6439 82.6352 56.5171 82.541 56.4094 82.418C56.3057 82.2911 56.2538 82.1258 56.2538 81.9221C56.2538 81.7606 56.3018 81.6126 56.3979 81.4781C56.494 81.3436 56.6305 81.2379 56.8073 81.161C56.9841 81.0803 57.1859 81.0399 57.4127 81.0399C57.7625 81.0399 58.0451 81.1283 58.2603 81.3051C58.4756 81.482 58.5909 81.7241 58.6063 82.0316H58.0816C58.0701 81.8664 58.0028 81.7337 57.8798 81.6338C57.7606 81.5338 57.5992 81.4839 57.3954 81.4839C57.2071 81.4839 57.0572 81.5242 56.9457 81.605C56.8342 81.6857 56.7785 81.7914 56.7785 81.9221C56.7785 82.0259 56.8111 82.1124 56.8765 82.1816C56.9457 82.2469 57.0303 82.3007 57.1302 82.343C57.234 82.3815 57.3762 82.4257 57.5569 82.4756C57.7837 82.5371 57.9682 82.5986 58.1104 82.6601C58.2527 82.7178 58.3737 82.8062 58.4737 82.9254C58.5775 83.0445 58.6313 83.2002 58.6351 83.3924C58.6351 83.5654 58.5871 83.7211 58.491 83.8595C58.3949 83.9979 58.2584 84.1074 58.0816 84.1881C57.9086 84.265 57.7087 84.3035 57.4819 84.3035ZM62.2589 82.5506C62.2589 82.6505 62.2531 82.7562 62.2416 82.8677H59.716C59.7353 83.1791 59.841 83.4232 60.0332 83.6C60.2292 83.773 60.4656 83.8595 60.7424 83.8595C60.9692 83.8595 61.1576 83.8076 61.3075 83.7038C61.4612 83.5962 61.5689 83.4539 61.6304 83.2771H62.1954C62.1109 83.5808 61.9417 83.8287 61.688 84.0209C61.4343 84.2093 61.1191 84.3035 60.7424 84.3035C60.4426 84.3035 60.1735 84.2362 59.9352 84.1017C59.7007 83.9671 59.5162 83.7768 59.3816 83.5308C59.2471 83.281 59.1798 82.9927 59.1798 82.6659C59.1798 82.3392 59.2451 82.0528 59.3758 81.8068C59.5065 81.5608 59.6891 81.3724 59.9236 81.2417C60.1619 81.1072 60.4349 81.0399 60.7424 81.0399C61.0422 81.0399 61.3075 81.1052 61.5381 81.2359C61.7688 81.3666 61.9456 81.5473 62.0686 81.7779C62.1954 82.0047 62.2589 82.2623 62.2589 82.5506ZM61.7169 82.441C61.7169 82.2411 61.6727 82.0701 61.5842 81.9279C61.4958 81.7818 61.3747 81.6722 61.221 81.5992C61.0711 81.5223 60.9038 81.4839 60.7193 81.4839C60.4541 81.4839 60.2273 81.5684 60.0389 81.7376C59.8544 81.9067 59.7487 82.1412 59.7218 82.441H61.7169ZM66.7513 81.0341C66.9973 81.0341 67.2164 81.086 67.4086 81.1898C67.6008 81.2898 67.7527 81.4416 67.8641 81.6453C67.9756 81.8491 68.0313 82.097 68.0313 82.3891V84.2516H67.5124V82.4641C67.5124 82.1489 67.4336 81.9086 67.276 81.7433C67.1222 81.5742 66.9127 81.4896 66.6475 81.4896C66.3746 81.4896 66.1574 81.5781 65.9959 81.7549C65.8345 81.9279 65.7538 82.1796 65.7538 82.5102V84.2516H65.2348V82.4641C65.2348 82.1489 65.156 81.9086 64.9984 81.7433C64.8446 81.5742 64.6351 81.4896 64.3699 81.4896C64.097 81.4896 63.8798 81.5781 63.7183 81.7549C63.5569 81.9279 63.4762 82.1796 63.4762 82.5102V84.2516H62.9515V81.0918H63.4762V81.5473C63.58 81.382 63.7183 81.2552 63.8913 81.1667C64.0682 81.0783 64.2623 81.0341 64.4737 81.0341C64.7389 81.0341 64.9734 81.0937 65.1772 81.2129C65.3809 81.332 65.5327 81.5069 65.6327 81.7376C65.7211 81.5146 65.8672 81.3416 66.0709 81.2186C66.2746 81.0956 66.5014 81.0341 66.7513 81.0341ZM71.9688 81.0341C72.3532 81.0341 72.6646 81.1514 72.9029 81.3859C73.1413 81.6165 73.2604 81.9509 73.2604 82.3891V84.2516H72.7415V82.4641C72.7415 82.1489 72.6627 81.9086 72.5051 81.7433C72.3475 81.5742 72.1322 81.4896 71.8593 81.4896C71.5825 81.4896 71.3615 81.5761 71.1962 81.7491C71.0347 81.9221 70.954 82.1739 70.954 82.5045V84.2516H70.4293V81.0918H70.954V81.5415C71.0578 81.3801 71.1981 81.2552 71.3749 81.1667C71.5556 81.0783 71.7536 81.0341 71.9688 81.0341ZM75.4956 84.3035C75.1996 84.3035 74.9305 84.2362 74.6884 84.1017C74.45 83.9671 74.2617 83.7768 74.1233 83.5308C73.9888 83.281 73.9215 82.9927 73.9215 82.6659C73.9215 82.343 73.9907 82.0586 74.1291 81.8125C74.2713 81.5627 74.4635 81.3724 74.7057 81.2417C74.9478 81.1072 75.2188 81.0399 75.5187 81.0399C75.8185 81.0399 76.0895 81.1072 76.3317 81.2417C76.5739 81.3724 76.7641 81.5608 76.9025 81.8068C77.0448 82.0528 77.1159 82.3392 77.1159 82.6659C77.1159 82.9927 77.0428 83.281 76.8968 83.5308C76.7545 83.7768 76.5604 83.9671 76.3144 84.1017C76.0684 84.2362 75.7954 84.3035 75.4956 84.3035ZM75.4956 83.8422C75.684 83.8422 75.8608 83.798 76.0261 83.7096C76.1914 83.6212 76.324 83.4885 76.4239 83.3117C76.5277 83.1349 76.5796 82.9196 76.5796 82.6659C76.5796 82.4122 76.5297 82.1969 76.4297 82.0201C76.3298 81.8433 76.1991 81.7126 76.0376 81.628C75.8762 81.5396 75.7013 81.4954 75.5129 81.4954C75.3207 81.4954 75.1439 81.5396 74.9824 81.628C74.8248 81.7126 74.698 81.8433 74.6019 82.0201C74.5058 82.1969 74.4577 82.4122 74.4577 82.6659C74.4577 82.9235 74.5039 83.1406 74.5961 83.3175C74.6922 83.4943 74.8191 83.6269 74.9767 83.7153C75.1343 83.7999 75.3073 83.8422 75.4956 83.8422ZM79.3453 81.0341C79.7297 81.0341 80.0411 81.1514 80.2794 81.3859C80.5177 81.6165 80.6369 81.9509 80.6369 82.3891V84.2516H80.1179V82.4641C80.1179 82.1489 80.0391 81.9086 79.8815 81.7433C79.7239 81.5742 79.5087 81.4896 79.2357 81.4896C78.959 81.4896 78.7379 81.5761 78.5726 81.7491C78.4112 81.9221 78.3305 82.1739 78.3305 82.5045V84.2516H77.8058V81.0918H78.3305V81.5415C78.4343 81.3801 78.5746 81.2552 78.7514 81.1667C78.9321 81.0783 79.13 81.0341 79.3453 81.0341ZM7.93302 91.6659C7.93302 91.3392 7.99837 91.0547 8.12907 90.8125C8.25976 90.5665 8.44043 90.3762 8.67107 90.2417C8.90556 90.1072 9.17272 90.0399 9.47255 90.0399C9.8608 90.0399 10.1799 90.1341 10.4297 90.3224C10.6834 90.5108 10.8506 90.7722 10.9314 91.1066H10.3663C10.3125 90.9144 10.2068 90.7626 10.0492 90.6511C9.8954 90.5396 9.70319 90.4839 9.47255 90.4839C9.17272 90.4839 8.93055 90.5877 8.74603 90.7952C8.56152 90.999 8.46926 91.2892 8.46926 91.6659C8.46926 92.0465 8.56152 92.3405 8.74603 92.5481C8.93055 92.7557 9.17272 92.8595 9.47255 92.8595C9.70319 92.8595 9.8954 92.8057 10.0492 92.698C10.2029 92.5904 10.3086 92.4366 10.3663 92.2367H10.9314C10.8468 92.5596 10.6777 92.8191 10.4239 93.0152C10.1702 93.2074 9.85311 93.3035 9.47255 93.3035C9.17272 93.3035 8.90556 93.2362 8.67107 93.1017C8.44043 92.9671 8.25976 92.7768 8.12907 92.5308C7.99837 92.2848 7.93302 91.9965 7.93302 91.6659ZM13.0096 93.3035C12.7136 93.3035 12.4445 93.2362 12.2023 93.1017C11.964 92.9671 11.7756 92.7768 11.6372 92.5308C11.5027 92.281 11.4354 91.9927 11.4354 91.6659C11.4354 91.343 11.5046 91.0586 11.643 90.8125C11.7852 90.5627 11.9774 90.3724 12.2196 90.2417C12.4618 90.1072 12.7328 90.0399 13.0326 90.0399C13.3325 90.0399 13.6035 90.1072 13.8456 90.2417C14.0878 90.3724 14.2781 90.5608 14.4165 90.8068C14.5587 91.0528 14.6298 91.3392 14.6298 91.6659C14.6298 91.9927 14.5568 92.281 14.4107 92.5308C14.2685 92.7768 14.0744 92.9671 13.8283 93.1017C13.5823 93.2362 13.3094 93.3035 13.0096 93.3035ZM13.0096 92.8422C13.1979 92.8422 13.3747 92.798 13.54 92.7096C13.7053 92.6212 13.838 92.4885 13.9379 92.3117C14.0417 92.1349 14.0936 91.9196 14.0936 91.6659C14.0936 91.4122 14.0436 91.1969 13.9437 91.0201C13.8437 90.8433 13.713 90.7126 13.5516 90.628C13.3901 90.5396 13.2152 90.4954 13.0269 90.4954C12.8347 90.4954 12.6578 90.5396 12.4964 90.628C12.3388 90.7126 12.2119 90.8433 12.1158 91.0201C12.0197 91.1969 11.9717 91.4122 11.9717 91.6659C11.9717 91.9235 12.0178 92.1406 12.1101 92.3175C12.2062 92.4943 12.333 92.6269 12.4906 92.7153C12.6482 92.7999 12.8212 92.8422 13.0096 92.8422ZM16.8593 90.0341C17.2437 90.0341 17.555 90.1514 17.7934 90.3859C18.0317 90.6165 18.1508 90.9509 18.1508 91.3891V93.2516H17.6319V91.4641C17.6319 91.1489 17.5531 90.9086 17.3955 90.7433C17.2379 90.5742 17.0226 90.4896 16.7497 90.4896C16.4729 90.4896 16.2519 90.5761 16.0866 90.7491C15.9252 90.9221 15.8444 91.1739 15.8444 91.5045V93.2516H15.3197V90.0918H15.8444V90.5415C15.9482 90.3801 16.0885 90.2552 16.2654 90.1667C16.446 90.0783 16.644 90.0341 16.8593 90.0341ZM20.1842 92.7672L21.1645 90.0918H21.7238L20.4841 93.2516H19.8729L18.6332 90.0918H19.1982L20.1842 92.7672ZM22.044 91.6601C22.044 91.3372 22.1094 91.0547 22.2401 90.8125C22.3708 90.5665 22.5495 90.3762 22.7763 90.2417C23.007 90.1072 23.2626 90.0399 23.5432 90.0399C23.82 90.0399 24.0602 90.0995 24.264 90.2186C24.4677 90.3378 24.6195 90.4877 24.7195 90.6684V90.0918H25.25V93.2516H24.7195V92.6634C24.6157 92.8479 24.46 93.0017 24.2524 93.1247C24.0487 93.2439 23.8104 93.3035 23.5374 93.3035C23.2568 93.3035 23.0031 93.2343 22.7763 93.0959C22.5495 92.9575 22.3708 92.7634 22.2401 92.5135C22.1094 92.2637 22.044 91.9792 22.044 91.6601ZM24.7195 91.6659C24.7195 91.4276 24.6714 91.22 24.5753 91.0432C24.4792 90.8664 24.3485 90.7318 24.1832 90.6396C24.0218 90.5435 23.843 90.4954 23.647 90.4954C23.451 90.4954 23.2722 90.5415 23.1108 90.6338C22.9493 90.726 22.8205 90.8606 22.7244 91.0374C22.6283 91.2142 22.5803 91.4218 22.5803 91.6601C22.5803 91.9023 22.6283 92.1137 22.7244 92.2944C22.8205 92.4712 22.9493 92.6077 23.1108 92.7038C23.2722 92.7961 23.451 92.8422 23.647 92.8422C23.843 92.8422 24.0218 92.7961 24.1832 92.7038C24.3485 92.6077 24.4792 92.4712 24.5753 92.2944C24.6714 92.1137 24.7195 91.9042 24.7195 91.6659ZM26.6614 88.9847V93.2516H26.1367V88.9847H26.6614ZM28.0804 88.9847V93.2516H27.5557V88.9847H28.0804ZM29.2456 89.5786C29.1457 89.5786 29.0611 89.544 28.9919 89.4748C28.9227 89.4056 28.8882 89.3211 28.8882 89.2211C28.8882 89.1212 28.9227 89.0366 28.9919 88.9674C29.0611 88.8982 29.1457 88.8636 29.2456 88.8636C29.3417 88.8636 29.4225 88.8982 29.4878 88.9674C29.557 89.0366 29.5916 89.1212 29.5916 89.2211C29.5916 89.3211 29.557 89.4056 29.4878 89.4748C29.4225 89.544 29.3417 89.5786 29.2456 89.5786ZM29.4994 90.0918V93.2516H28.9746V90.0918H29.4994ZM31.5122 93.3035C31.2701 93.3035 31.0529 93.2631 30.8607 93.1824C30.6685 93.0978 30.5166 92.9825 30.4052 92.8364C30.2937 92.6865 30.2322 92.5154 30.2206 92.3232H30.7627C30.778 92.4808 30.8511 92.6096 30.9818 92.7096C31.1163 92.8095 31.2912 92.8595 31.5065 92.8595C31.7064 92.8595 31.864 92.8153 31.9793 92.7269C32.0946 92.6384 32.1523 92.527 32.1523 92.3924C32.1523 92.254 32.0908 92.1522 31.9678 92.0868C31.8447 92.0176 31.6545 91.9504 31.3969 91.885C31.1624 91.8235 30.9702 91.762 30.8203 91.7005C30.6742 91.6352 30.5474 91.541 30.4398 91.418C30.336 91.2911 30.2841 91.1258 30.2841 90.9221C30.2841 90.7606 30.3321 90.6126 30.4282 90.4781C30.5243 90.3436 30.6608 90.2379 30.8376 90.161C31.0144 90.0803 31.2162 90.0399 31.443 90.0399C31.7929 90.0399 32.0754 90.1283 32.2907 90.3051C32.5059 90.482 32.6212 90.7241 32.6366 91.0316H32.1119C32.1004 90.8664 32.0331 90.7337 31.9101 90.6338C31.7909 90.5338 31.6295 90.4839 31.4257 90.4839C31.2374 90.4839 31.0875 90.5242 30.976 90.605C30.8645 90.6857 30.8088 90.7914 30.8088 90.9221C30.8088 91.0259 30.8415 91.1124 30.9068 91.1816C30.976 91.2469 31.0606 91.3007 31.1605 91.343C31.2643 91.3815 31.4065 91.4257 31.5872 91.4756C31.814 91.5371 31.9985 91.5986 32.1407 91.6601C32.283 91.7178 32.4041 91.8062 32.504 91.9254C32.6078 92.0445 32.6616 92.2002 32.6654 92.3924C32.6654 92.5654 32.6174 92.7211 32.5213 92.8595C32.4252 92.9979 32.2887 93.1074 32.1119 93.1881C31.9389 93.265 31.739 93.3035 31.5122 93.3035ZM38.7432 90.0341C38.9892 90.0341 39.2083 90.086 39.4005 90.1898C39.5927 90.2898 39.7446 90.4416 39.8561 90.6453C39.9675 90.8491 40.0233 91.097 40.0233 91.3891V93.2516H39.5043V91.4641C39.5043 91.1489 39.4255 90.9086 39.2679 90.7433C39.1142 90.5742 38.9047 90.4896 38.6394 90.4896C38.3665 90.4896 38.1493 90.5781 37.9879 90.7549C37.8264 90.9279 37.7457 91.1796 37.7457 91.5102V93.2516H37.2267V91.4641C37.2267 91.1489 37.1479 90.9086 36.9903 90.7433C36.8366 90.5742 36.6271 90.4896 36.3618 90.4896C36.0889 90.4896 35.8717 90.5781 35.7103 90.7549C35.5488 90.9279 35.4681 91.1796 35.4681 91.5102V93.2516H34.9434V90.0918H35.4681V90.5473C35.5719 90.382 35.7103 90.2552 35.8833 90.1667C36.0601 90.0783 36.2542 90.0341 36.4656 90.0341C36.7309 90.0341 36.9653 90.0937 37.1691 90.2129C37.3728 90.332 37.5247 90.5069 37.6246 90.7376C37.713 90.5146 37.8591 90.3416 38.0628 90.2186C38.2665 90.0956 38.4933 90.0341 38.7432 90.0341ZM42.2621 93.3035C41.9661 93.3035 41.697 93.2362 41.4548 93.1017C41.2165 92.9671 41.0281 92.7768 40.8897 92.5308C40.7552 92.281 40.6879 91.9927 40.6879 91.6659C40.6879 91.343 40.7571 91.0586 40.8955 90.8125C41.0377 90.5627 41.2299 90.3724 41.4721 90.2417C41.7143 90.1072 41.9853 90.0399 42.2851 90.0399C42.585 90.0399 42.856 90.1072 43.0981 90.2417C43.3403 90.3724 43.5306 90.5608 43.669 90.8068C43.8112 91.0528 43.8823 91.3392 43.8823 91.6659C43.8823 91.9927 43.8093 92.281 43.6632 92.5308C43.521 92.7768 43.3269 92.9671 43.0808 93.1017C42.8348 93.2362 42.5619 93.3035 42.2621 93.3035ZM42.2621 92.8422C42.4504 92.8422 42.6272 92.798 42.7925 92.7096C42.9578 92.6212 43.0905 92.4885 43.1904 92.3117C43.2942 92.1349 43.3461 91.9196 43.3461 91.6659C43.3461 91.4122 43.2961 91.1969 43.1962 91.0201C43.0962 90.8433 42.9655 90.7126 42.8041 90.628C42.6426 90.5396 42.4677 90.4954 42.2794 90.4954C42.0872 90.4954 41.9103 90.5396 41.7489 90.628C41.5913 90.7126 41.4644 90.8433 41.3683 91.0201C41.2722 91.1969 41.2242 91.4122 41.2242 91.6659C41.2242 91.9235 41.2703 92.1406 41.3626 92.3175C41.4587 92.4943 41.5855 92.6269 41.7431 92.7153C41.9007 92.7999 42.0737 92.8422 42.2621 92.8422ZM45.0969 88.9847V93.2516H44.5722V88.9847H45.0969ZM48.8742 91.5506C48.8742 91.6505 48.8685 91.7562 48.8569 91.8677H46.3314C46.3506 92.1791 46.4563 92.4232 46.6485 92.6C46.8446 92.773 47.081 92.8595 47.3578 92.8595C47.5846 92.8595 47.7729 92.8076 47.9228 92.7038C48.0766 92.5962 48.1842 92.4539 48.2457 92.2771H48.8108C48.7262 92.5808 48.5571 92.8287 48.3034 93.0209C48.0497 93.2093 47.7345 93.3035 47.3578 93.3035C47.0579 93.3035 46.7888 93.2362 46.5505 93.1017C46.316 92.9671 46.1315 92.7768 45.997 92.5308C45.8624 92.281 45.7952 91.9927 45.7952 91.6659C45.7952 91.3392 45.8605 91.0528 45.9912 90.8068C46.1219 90.5608 46.3045 90.3724 46.539 90.2417C46.7773 90.1072 47.0502 90.0399 47.3578 90.0399C47.6576 90.0399 47.9228 90.1052 48.1535 90.2359C48.3841 90.3666 48.5609 90.5473 48.6839 90.7779C48.8108 91.0047 48.8742 91.2623 48.8742 91.5506ZM48.3322 91.441C48.3322 91.2411 48.288 91.0701 48.1996 90.9279C48.1112 90.7818 47.9901 90.6722 47.8363 90.5992C47.6864 90.5223 47.5192 90.4839 47.3347 90.4839C47.0695 90.4839 46.8427 90.5684 46.6543 90.7376C46.4698 90.9067 46.3641 91.1412 46.3372 91.441H48.3322ZM50.6854 93.3035C50.4433 93.3035 50.2261 93.2631 50.0339 93.1824C49.8417 93.0978 49.6898 92.9825 49.5784 92.8364C49.4669 92.6865 49.4054 92.5154 49.3938 92.3232H49.9359C49.9512 92.4808 50.0243 92.6096 50.155 92.7096C50.2895 92.8095 50.4644 92.8595 50.6797 92.8595C50.8796 92.8595 51.0372 92.8153 51.1525 92.7269C51.2678 92.6384 51.3255 92.527 51.3255 92.3924C51.3255 92.254 51.264 92.1522 51.141 92.0868C51.0179 92.0176 50.8277 91.9504 50.5701 91.885C50.3356 91.8235 50.1434 91.762 49.9935 91.7005C49.8474 91.6352 49.7206 91.541 49.613 91.418C49.5092 91.2911 49.4573 91.1258 49.4573 90.9221C49.4573 90.7606 49.5053 90.6126 49.6014 90.4781C49.6975 90.3436 49.834 90.2379 50.0108 90.161C50.1876 90.0803 50.3894 90.0399 50.6162 90.0399C50.9661 90.0399 51.2486 90.1283 51.4639 90.3051C51.6791 90.482 51.7944 90.7241 51.8098 91.0316H51.2851C51.2736 90.8664 51.2063 90.7337 51.0833 90.6338C50.9641 90.5338 50.8027 90.4839 50.5989 90.4839C50.4106 90.4839 50.2607 90.5242 50.1492 90.605C50.0377 90.6857 49.982 90.7914 49.982 90.9221C49.982 91.0259 50.0147 91.1124 50.08 91.1816C50.1492 91.2469 50.2338 91.3007 50.3337 91.343C50.4375 91.3815 50.5797 91.4257 50.7604 91.4756C50.9872 91.5371 51.1717 91.5986 51.3139 91.6601C51.4562 91.7178 51.5773 91.8062 51.6772 91.9254C51.781 92.0445 51.8348 92.2002 51.8386 92.3924C51.8386 92.5654 51.7906 92.7211 51.6945 92.8595C51.5984 92.9979 51.4619 93.1074 51.2851 93.1881C51.1121 93.265 50.9122 93.3035 50.6854 93.3035ZM53.2194 90.5242V92.3867C53.2194 92.5404 53.2521 92.65 53.3174 92.7153C53.3828 92.7768 53.4962 92.8076 53.6576 92.8076H54.0439V93.2516H53.5711C53.279 93.2516 53.0599 93.1843 52.9138 93.0498C52.7677 92.9152 52.6947 92.6942 52.6947 92.3867V90.5242H52.2853V90.0918H52.6947V89.2961H53.2194V90.0918H54.0439V90.5242H53.2194ZM54.9507 89.5786C54.8507 89.5786 54.7662 89.544 54.697 89.4748C54.6278 89.4056 54.5932 89.3211 54.5932 89.2211C54.5932 89.1212 54.6278 89.0366 54.697 88.9674C54.7662 88.8982 54.8507 88.8636 54.9507 88.8636C55.0468 88.8636 55.1275 88.8982 55.1929 88.9674C55.262 89.0366 55.2966 89.1212 55.2966 89.2211C55.2966 89.3211 55.262 89.4056 55.1929 89.4748C55.1275 89.544 55.0468 89.5786 54.9507 89.5786ZM55.2044 90.0918V93.2516H54.6797V90.0918H55.2044ZM58.9817 91.5506C58.9817 91.6505 58.9759 91.7562 58.9644 91.8677H56.4389C56.4581 92.1791 56.5638 92.4232 56.756 92.6C56.952 92.773 57.1884 92.8595 57.4652 92.8595C57.692 92.8595 57.8804 92.8076 58.0303 92.7038C58.184 92.5962 58.2917 92.4539 58.3532 92.2771H58.9183C58.8337 92.5808 58.6645 92.8287 58.4108 93.0209C58.1571 93.2093 57.8419 93.3035 57.4652 93.3035C57.1654 93.3035 56.8963 93.2362 56.658 93.1017C56.4235 92.9671 56.239 92.7768 56.1044 92.5308C55.9699 92.281 55.9026 91.9927 55.9026 91.6659C55.9026 91.3392 55.968 91.0528 56.0987 90.8068C56.2294 90.5608 56.412 90.3724 56.6464 90.2417C56.8848 90.1072 57.1577 90.0399 57.4652 90.0399C57.765 90.0399 58.0303 90.1052 58.2609 90.2359C58.4916 90.3666 58.6684 90.5473 58.7914 90.7779C58.9183 91.0047 58.9817 91.2623 58.9817 91.5506ZM58.4397 91.441C58.4397 91.2411 58.3955 91.0701 58.3071 90.9279C58.2186 90.7818 58.0976 90.6722 57.9438 90.5992C57.7939 90.5223 57.6267 90.4839 57.4421 90.4839C57.1769 90.4839 56.9501 90.5684 56.7618 90.7376C56.5772 90.9067 56.4715 91.1412 56.4446 91.441H58.4397ZM59.8415 93.2862C59.7416 93.2862 59.657 93.2516 59.5878 93.1824C59.5186 93.1132 59.484 93.0286 59.484 92.9287C59.484 92.8287 59.5186 92.7442 59.5878 92.675C59.657 92.6058 59.7416 92.5712 59.8415 92.5712C59.9376 92.5712 60.0183 92.6058 60.0837 92.675C60.1529 92.7442 60.1875 92.8287 60.1875 92.9287C60.1875 93.0286 60.1529 93.1132 60.0837 93.1824C60.0183 93.2516 59.9376 93.2862 59.8415 93.2862Z" fill="#DDDDDD"/>
<path d="M17.114 24.6664L17.438 25.4242C17.46 25.4901 17.5204 25.5285 17.5808 25.534L18.4045 25.6109C18.5802 25.6274 18.6461 25.8415 18.5198 25.9568L17.8993 26.5005C17.8499 26.5444 17.8279 26.6103 17.8444 26.6707L18.0256 27.478C18.064 27.6482 17.8828 27.78 17.7291 27.6921L17.0207 27.2693C16.9658 27.2364 16.8944 27.2364 16.8395 27.2693L16.1311 27.6921C15.9828 27.78 15.7961 27.6482 15.8345 27.478L16.0157 26.6707C16.0322 26.6103 16.0102 26.5444 15.9608 26.5005L15.3403 25.9568C15.2085 25.8415 15.2799 25.6274 15.4556 25.6109L16.2793 25.534C16.3452 25.5285 16.4001 25.4901 16.4276 25.4297L16.7516 24.6718C16.8175 24.5071 17.0426 24.5071 17.114 24.6664Z" stroke="#F0C932" stroke-width="0.549146" stroke-miterlimit="10" stroke-linecap="round" stroke-linejoin="round"/>
<path d="M20.6655 26.2724C20.6797 24.2101 19.0194 22.5267 16.957 22.5125C14.8947 22.4983 13.2113 24.1587 13.1971 26.221C13.1829 28.2834 14.8433 29.9667 16.9056 29.9809C18.968 29.9951 20.6513 28.3348 20.6655 26.2724Z" stroke="#F0C932" stroke-width="0.549146" stroke-miterlimit="10" stroke-linecap="round" stroke-linejoin="round"/>
<path d="M16.4221 29.9436L15.494 32.2775L14.3188 30.9321L12.5451 31.0969L13.7203 28.1534" stroke="#F0C932" stroke-width="0.549146" stroke-miterlimit="10" stroke-linecap="round" stroke-linejoin="round"/>
<path d="M17.4325 29.9437L18.3661 32.2775L19.5358 30.9321L21.315 31.0969L20.1343 28.1534" stroke="#F0C932" stroke-width="0.549146" stroke-miterlimit="10" stroke-linecap="round" stroke-linejoin="round"/>
</svg>
