<svg width="14" height="14" viewBox="0 0 14 14" fill="none" xmlns="http://www.w3.org/2000/svg">
<rect width="14" height="14" fill="#E5E5E5"/>
<g id="Cover" clip-path="url(#clip0_32_18)">
<rect width="1440" height="1019" transform="translate(-373 -347)" fill="#DBDDFF"/>
</g>
<g id="Desktop - 1" clip-path="url(#clip1_32_18)">
<rect width="593.078" height="1516.47" transform="translate(-227 -409)" fill="white"/>
<g id="Group 1953">
<g id="Frame 6">
<rect x="-9.19843" y="-19.2324" width="109.967" height="109.967" rx="4.1186" fill="#545BE8"/>
<g id="Group 10">
<circle id="Ellipse 9" cx="7.27602" cy="7.12661" r="9.88463" fill="white"/>
</g>
<g id="16">
<g id="Group 1686">
<path id="Vector" d="M7.30882 6.91793C8.37335 6.91793 9.23632 6.05496 9.23632 4.99043C9.23632 3.9259 8.37335 3.06293 7.30882 3.06293C6.24429 3.06293 5.38132 3.9259 5.38132 4.99043C5.38132 6.05496 6.24429 6.91793 7.30882 6.91793Z" stroke="#F0C932" stroke-width="0.658976" stroke-miterlimit="10" stroke-linecap="round" stroke-linejoin="round"/>
<path id="Vector_2" d="M10.8509 11.7395C11.2134 11.7395 11.4934 11.388 11.3781 11.0366C10.8235 9.31774 9.21449 8.07118 7.30896 8.07118C5.40342 8.07118 3.79442 9.31774 3.23978 11.0366C3.12995 11.3825 3.40453 11.7395 3.76696 11.7395H10.8509Z" stroke="#F0C932" stroke-width="0.658976" stroke-miterlimit="10" stroke-linecap="round" stroke-linejoin="round"/>
</g>
</g>
</g>
</g>
</g>
<defs>
<clipPath id="clip0_32_18">
<rect width="1440" height="1019" fill="white" transform="translate(-373 -347)"/>
</clipPath>
<clipPath id="clip1_32_18">
<rect width="593.078" height="1516.47" fill="white" transform="translate(-227 -409)"/>
</clipPath>
</defs>
</svg>
